<svg width="761" height="550" viewBox="0 0 761 550" fill="none" xmlns="http://www.w3.org/2000/svg">
<g filter="url(#filter0_d_968_6332)">
<rect x="159" y="9" width="470" height="333" rx="24" fill="white" shape-rendering="crispEdges"/>
<path d="M427.752 78.992C427.112 79.76 426.52 80.512 425.976 81.248C425.432 81.984 424.888 82.704 424.344 83.408C425.976 82.288 427.768 81.424 429.72 80.816C431.704 80.176 433.848 79.856 436.152 79.856C438.936 79.856 441.56 80.32 444.024 81.248C446.488 82.144 448.632 83.472 450.456 85.232C452.312 86.96 453.784 89.104 454.872 91.664C455.96 94.192 456.504 97.088 456.504 100.352C456.504 103.52 455.928 106.464 454.776 109.184C453.624 111.904 452.008 114.272 449.928 116.288C447.88 118.304 445.4 119.888 442.488 121.04C439.608 122.192 436.424 122.768 432.936 122.768C429.48 122.768 426.344 122.224 423.528 121.136C420.712 120.016 418.312 118.448 416.328 116.432C414.376 114.384 412.856 111.92 411.768 109.04C410.712 106.128 410.184 102.88 410.184 99.296C410.184 96.288 410.84 93.088 412.152 89.696C413.496 86.272 415.624 82.624 418.536 78.752L436.008 55.28C436.456 54.704 437.064 54.224 437.832 53.84C438.632 53.424 439.544 53.216 440.568 53.216H448.152L427.752 78.992ZM418.392 100.784C418.392 102.992 418.712 105.008 419.352 106.832C419.992 108.656 420.92 110.224 422.136 111.536C423.384 112.848 424.888 113.872 426.648 114.608C428.44 115.312 430.472 115.664 432.744 115.664C435.048 115.664 437.128 115.296 438.984 114.56C440.872 113.824 442.472 112.8 443.784 111.488C445.128 110.176 446.152 108.624 446.856 106.832C447.592 105.04 447.96 103.088 447.96 100.976C447.96 98.736 447.608 96.72 446.904 94.928C446.2 93.104 445.192 91.568 443.88 90.32C442.6 89.04 441.064 88.064 439.272 87.392C437.48 86.72 435.512 86.384 433.368 86.384C431.064 86.384 428.984 86.784 427.128 87.584C425.272 88.352 423.688 89.408 422.376 90.752C421.096 92.064 420.104 93.6 419.4 95.36C418.728 97.088 418.392 98.896 418.392 100.784ZM489.392 52.448C492.304 52.448 494.992 52.864 497.456 53.696C499.92 54.528 502.032 55.712 503.792 57.248C505.584 58.784 506.976 60.64 507.968 62.816C508.96 64.992 509.456 67.408 509.456 70.064C509.456 72.24 509.168 74.192 508.592 75.92C508.048 77.616 507.248 79.12 506.192 80.432C505.168 81.712 503.92 82.8 502.448 83.696C500.976 84.592 499.328 85.312 497.504 85.856C501.984 87.04 505.344 89.024 507.584 91.808C509.856 94.592 510.992 98.08 510.992 102.272C510.992 105.44 510.384 108.288 509.167 110.816C507.984 113.344 506.352 115.504 504.272 117.296C502.192 119.056 499.76 120.416 496.976 121.376C494.224 122.304 491.264 122.768 488.096 122.768C484.448 122.768 481.328 122.32 478.736 121.424C476.144 120.496 473.952 119.232 472.16 117.632C470.368 116.032 468.896 114.144 467.743 111.968C466.592 109.76 465.616 107.376 464.816 104.816L468.512 103.28C469.472 102.864 470.4 102.752 471.296 102.944C472.224 103.136 472.896 103.664 473.312 104.528C473.728 105.424 474.24 106.496 474.848 107.744C475.488 108.992 476.352 110.192 477.44 111.344C478.528 112.496 479.904 113.472 481.568 114.272C483.264 115.072 485.408 115.472 488 115.472C490.4 115.472 492.496 115.088 494.288 114.32C496.112 113.52 497.616 112.496 498.8 111.248C500.016 110 500.928 108.608 501.536 107.072C502.144 105.536 502.448 104.016 502.448 102.512C502.448 100.656 502.208 98.96 501.728 97.424C501.248 95.888 500.352 94.56 499.04 93.44C497.728 92.32 495.92 91.44 493.616 90.8C491.344 90.16 488.416 89.84 484.832 89.84V83.648C487.776 83.616 490.272 83.296 492.32 82.688C494.4 82.08 496.08 81.248 497.36 80.192C498.672 79.136 499.616 77.872 500.192 76.4C500.8 74.928 501.104 73.296 501.104 71.504C501.104 69.52 500.784 67.792 500.144 66.32C499.536 64.848 498.688 63.632 497.6 62.672C496.512 61.712 495.216 60.992 493.712 60.512C492.24 60.032 490.64 59.792 488.911 59.792C487.184 59.792 485.568 60.048 484.064 60.56C482.592 61.072 481.28 61.792 480.128 62.72C479.008 63.616 478.064 64.688 477.296 65.936C476.528 67.184 475.984 68.56 475.664 70.064C475.248 71.184 474.72 71.936 474.08 72.32C473.472 72.672 472.576 72.768 471.392 72.608L466.928 71.84C467.376 68.704 468.24 65.936 469.52 63.536C470.8 61.104 472.416 59.072 474.368 57.44C476.352 55.808 478.608 54.576 481.136 53.744C483.696 52.88 486.448 52.448 489.392 52.448ZM551.031 69.824C551.031 72.512 550.615 74.928 549.783 77.072C548.951 79.184 547.831 80.976 546.423 82.448C545.047 83.888 543.431 84.992 541.575 85.76C539.751 86.528 537.815 86.912 535.767 86.912C533.623 86.912 531.623 86.528 529.767 85.76C527.911 84.992 526.295 83.888 524.919 82.448C523.575 80.976 522.519 79.184 521.751 77.072C520.983 74.928 520.599 72.512 520.599 69.824C520.599 67.072 520.983 64.624 521.751 62.48C522.519 60.336 523.575 58.528 524.919 57.056C526.295 55.584 527.911 54.464 529.767 53.696C531.623 52.928 533.623 52.544 535.767 52.544C537.943 52.544 539.959 52.928 541.815 53.696C543.671 54.464 545.287 55.584 546.663 57.056C548.039 58.528 549.111 60.336 549.879 62.48C550.647 64.624 551.031 67.072 551.031 69.824ZM544.407 69.824C544.407 67.712 544.183 65.92 543.735 64.448C543.287 62.976 542.663 61.776 541.863 60.848C541.095 59.888 540.183 59.2 539.127 58.784C538.071 58.368 536.951 58.16 535.767 58.16C534.583 58.16 533.479 58.368 532.455 58.784C531.431 59.2 530.535 59.888 529.767 60.848C528.999 61.776 528.391 62.976 527.943 64.448C527.495 65.92 527.271 67.712 527.271 69.824C527.271 71.904 527.495 73.68 527.943 75.152C528.391 76.592 528.999 77.776 529.767 78.704C530.535 79.6 531.431 80.256 532.455 80.672C533.479 81.056 534.583 81.248 535.767 81.248C536.951 81.248 538.071 81.056 539.127 80.672C540.183 80.256 541.095 79.6 541.863 78.704C542.663 77.776 543.287 76.592 543.735 75.152C544.183 73.68 544.407 71.904 544.407 69.824ZM575.367 54.656C575.687 54.272 576.055 53.936 576.471 53.648C576.919 53.36 577.511 53.216 578.247 53.216H584.439L534.135 120.608C533.847 121.024 533.479 121.36 533.031 121.616C532.583 121.872 532.039 122 531.399 122H525.111L575.367 54.656ZM589.095 105.776C589.095 108.464 588.679 110.864 587.847 112.976C587.015 115.088 585.895 116.88 584.487 118.352C583.111 119.792 581.495 120.896 579.639 121.664C577.815 122.432 575.879 122.816 573.831 122.816C571.655 122.816 569.639 122.432 567.783 121.664C565.959 120.896 564.359 119.792 562.983 118.352C561.639 116.88 560.583 115.088 559.815 112.976C559.047 110.864 558.663 108.464 558.663 105.776C558.663 103.024 559.047 100.576 559.815 98.432C560.583 96.256 561.639 94.432 562.983 92.96C564.359 91.488 565.959 90.368 567.783 89.6C569.639 88.832 571.655 88.448 573.831 88.448C575.975 88.448 577.975 88.832 579.831 89.6C581.719 90.368 583.335 91.488 584.679 92.96C586.055 94.432 587.127 96.256 587.895 98.432C588.695 100.576 589.095 103.024 589.095 105.776ZM582.471 105.776C582.471 103.664 582.247 101.872 581.799 100.4C581.351 98.896 580.727 97.68 579.927 96.752C579.159 95.824 578.247 95.152 577.191 94.736C576.135 94.32 575.015 94.112 573.831 94.112C572.647 94.112 571.527 94.32 570.471 94.736C569.447 95.152 568.551 95.824 567.783 96.752C567.015 97.68 566.407 98.896 565.959 100.4C565.543 101.872 565.335 103.664 565.335 105.776C565.335 107.856 565.543 109.616 565.959 111.056C566.407 112.496 567.015 113.68 567.783 114.608C568.551 115.504 569.447 116.16 570.471 116.576C571.527 116.96 572.647 117.152 573.831 117.152C575.015 117.152 576.135 116.96 577.191 116.576C578.247 116.16 579.159 115.504 579.927 114.608C580.727 113.68 581.351 112.496 581.799 111.056C582.247 109.616 582.471 107.856 582.471 105.776Z" fill="black"/>
<path d="M199.2 70H196.716V62.212H187.632V70H185.148V52.78H187.632V60.412H196.716V52.78H199.2V70ZM210.444 70C210.22 70 210.048 69.964 209.928 69.892C209.808 69.82 209.712 69.68 209.64 69.472L209.388 68.38C209.076 68.668 208.768 68.928 208.464 69.16C208.16 69.384 207.84 69.572 207.504 69.724C207.176 69.876 206.824 69.992 206.448 70.072C206.072 70.152 205.652 70.192 205.188 70.192C204.708 70.192 204.26 70.128 203.844 70C203.428 69.864 203.064 69.66 202.752 69.388C202.448 69.116 202.204 68.78 202.02 68.38C201.844 67.972 201.756 67.492 201.756 66.94C201.756 66.46 201.884 66 202.14 65.56C202.404 65.12 202.828 64.728 203.412 64.384C204.004 64.032 204.772 63.744 205.716 63.52C206.668 63.296 207.836 63.168 209.22 63.136V62.224C209.22 61.304 209.02 60.612 208.62 60.148C208.228 59.676 207.648 59.44 206.88 59.44C206.36 59.44 205.924 59.508 205.572 59.644C205.228 59.772 204.928 59.916 204.672 60.076C204.424 60.228 204.204 60.368 204.012 60.496C203.82 60.624 203.628 60.688 203.436 60.688C203.276 60.688 203.14 60.648 203.028 60.568C202.924 60.48 202.832 60.38 202.752 60.268L202.344 59.524C203.024 58.884 203.756 58.404 204.54 58.084C205.332 57.764 206.204 57.604 207.156 57.604C207.844 57.604 208.456 57.716 208.992 57.94C209.528 58.164 209.976 58.48 210.336 58.888C210.704 59.288 210.98 59.772 211.164 60.34C211.356 60.908 211.452 61.536 211.452 62.224V70H210.444ZM205.872 68.596C206.232 68.596 206.564 68.56 206.868 68.488C207.18 68.416 207.468 68.312 207.732 68.176C208.004 68.04 208.26 67.876 208.5 67.684C208.74 67.484 208.98 67.26 209.22 67.012V64.564C208.26 64.596 207.444 64.672 206.772 64.792C206.1 64.912 205.552 65.068 205.128 65.26C204.712 65.452 204.408 65.684 204.216 65.956C204.024 66.22 203.928 66.512 203.928 66.832C203.928 67.144 203.976 67.412 204.072 67.636C204.176 67.86 204.316 68.044 204.492 68.188C204.668 68.324 204.872 68.428 205.104 68.5C205.344 68.564 205.6 68.596 205.872 68.596ZM222.589 57.82V59.548H216.913V70H214.633V57.82H222.589ZM224.57 74.092V57.82H225.938C226.258 57.82 226.458 57.972 226.538 58.276L226.73 59.668C227.242 59.052 227.83 58.556 228.494 58.18C229.166 57.796 229.934 57.604 230.798 57.604C231.494 57.604 232.122 57.74 232.682 58.012C233.25 58.276 233.734 58.672 234.134 59.2C234.542 59.728 234.854 60.38 235.07 61.156C235.286 61.924 235.394 62.812 235.394 63.82C235.394 64.724 235.274 65.564 235.034 66.34C234.794 67.108 234.446 67.776 233.99 68.344C233.534 68.912 232.982 69.36 232.334 69.688C231.686 70.008 230.954 70.168 230.138 70.168C229.394 70.168 228.762 70.048 228.242 69.808C227.722 69.568 227.258 69.224 226.85 68.776V74.092H224.57ZM230.054 59.44C229.366 59.44 228.766 59.596 228.254 59.908C227.75 60.212 227.282 60.648 226.85 61.216V67.036C227.234 67.54 227.65 67.896 228.098 68.104C228.554 68.304 229.062 68.404 229.622 68.404C230.718 68.404 231.562 68.012 232.154 67.228C232.746 66.444 233.042 65.308 233.042 63.82C233.042 63.044 232.974 62.38 232.838 61.828C232.702 61.276 232.506 60.824 232.25 60.472C231.994 60.112 231.682 59.852 231.314 59.692C230.946 59.524 230.526 59.44 230.054 59.44ZM241.547 73.552C241.475 73.728 241.383 73.86 241.271 73.948C241.159 74.044 240.987 74.092 240.755 74.092H239.062L241.295 69.256L236.279 57.82H238.259C238.451 57.82 238.603 57.868 238.715 57.964C238.827 58.052 238.903 58.156 238.943 58.276L242.099 65.716C242.235 66.084 242.343 66.448 242.423 66.808C242.479 66.624 242.539 66.44 242.603 66.256C242.667 66.064 242.735 65.876 242.807 65.692L245.855 58.276C245.903 58.14 245.987 58.032 246.107 57.952C246.227 57.864 246.363 57.82 246.515 57.82H248.327L241.547 73.552ZM249.372 59.08C249.828 58.648 250.388 58.3 251.052 58.036C251.716 57.764 252.508 57.628 253.428 57.628C254.172 57.628 254.828 57.72 255.396 57.904C255.964 58.08 256.44 58.316 256.824 58.612C257.208 58.908 257.496 59.252 257.688 59.644C257.888 60.028 257.988 60.424 257.988 60.832C257.988 61.072 257.948 61.324 257.868 61.588C257.796 61.844 257.672 62.096 257.496 62.344C257.328 62.584 257.104 62.808 256.824 63.016C256.544 63.216 256.2 63.384 255.792 63.52C256.552 63.752 257.152 64.124 257.592 64.636C258.032 65.14 258.252 65.764 258.252 66.508C258.252 67.076 258.12 67.588 257.856 68.044C257.6 68.492 257.252 68.876 256.812 69.196C256.38 69.508 255.876 69.748 255.3 69.916C254.732 70.084 254.136 70.168 253.512 70.168C253.128 70.168 252.732 70.132 252.324 70.06C251.916 69.988 251.516 69.876 251.124 69.724C250.74 69.572 250.372 69.376 250.02 69.136C249.676 68.896 249.368 68.608 249.096 68.272L249.744 67.444C249.84 67.3 249.984 67.228 250.176 67.228C250.32 67.228 250.472 67.292 250.632 67.42C250.8 67.54 251.004 67.672 251.244 67.816C251.484 67.96 251.772 68.096 252.108 68.224C252.444 68.344 252.86 68.404 253.356 68.404C253.788 68.404 254.172 68.352 254.508 68.248C254.844 68.144 255.128 68 255.36 67.816C255.6 67.624 255.78 67.404 255.9 67.156C256.02 66.9 256.08 66.62 256.08 66.316C256.08 65.732 255.84 65.268 255.36 64.924C254.88 64.572 254.14 64.396 253.14 64.396H251.76V62.872H253.14C254.012 62.872 254.692 62.708 255.18 62.38C255.668 62.052 255.912 61.628 255.912 61.108C255.912 60.876 255.86 60.656 255.756 60.448C255.652 60.24 255.492 60.06 255.276 59.908C255.068 59.748 254.804 59.624 254.484 59.536C254.164 59.44 253.792 59.392 253.368 59.392C252.896 59.392 252.496 59.44 252.168 59.536C251.848 59.624 251.572 59.728 251.34 59.848C251.116 59.96 250.928 60.064 250.776 60.16C250.632 60.248 250.508 60.292 250.404 60.292C250.292 60.292 250.2 60.272 250.128 60.232C250.064 60.184 249.988 60.092 249.9 59.956L249.372 59.08ZM268.29 58.444C268.41 58.26 268.566 58.112 268.758 58C268.958 57.88 269.166 57.82 269.382 57.82H271.17L268.05 62.44C267.866 62.744 267.666 62.992 267.45 63.184C267.242 63.368 266.986 63.512 266.682 63.616C267.066 63.72 267.39 63.884 267.654 64.108C267.918 64.324 268.154 64.608 268.362 64.96L271.506 70H269.934C269.526 70 269.21 69.932 268.986 69.796C268.762 69.66 268.57 69.464 268.41 69.208L266.142 65.488C265.958 65.184 265.726 64.956 265.446 64.804C265.166 64.644 264.846 64.564 264.486 64.564H263.202V70.012H260.922V57.82H263.202V63.04H264.318C264.654 63.04 264.942 62.972 265.182 62.836C265.422 62.7 265.626 62.5 265.794 62.236L268.29 58.444ZM281.225 70C281.001 70 280.829 69.964 280.709 69.892C280.589 69.82 280.493 69.68 280.421 69.472L280.169 68.38C279.857 68.668 279.549 68.928 279.245 69.16C278.941 69.384 278.621 69.572 278.285 69.724C277.957 69.876 277.605 69.992 277.229 70.072C276.853 70.152 276.433 70.192 275.969 70.192C275.489 70.192 275.041 70.128 274.625 70C274.209 69.864 273.845 69.66 273.533 69.388C273.229 69.116 272.985 68.78 272.801 68.38C272.625 67.972 272.537 67.492 272.537 66.94C272.537 66.46 272.665 66 272.921 65.56C273.185 65.12 273.609 64.728 274.193 64.384C274.785 64.032 275.553 63.744 276.497 63.52C277.449 63.296 278.617 63.168 280.001 63.136V62.224C280.001 61.304 279.801 60.612 279.401 60.148C279.009 59.676 278.429 59.44 277.661 59.44C277.141 59.44 276.705 59.508 276.353 59.644C276.009 59.772 275.709 59.916 275.453 60.076C275.205 60.228 274.985 60.368 274.793 60.496C274.601 60.624 274.409 60.688 274.217 60.688C274.057 60.688 273.921 60.648 273.809 60.568C273.705 60.48 273.613 60.38 273.533 60.268L273.125 59.524C273.805 58.884 274.537 58.404 275.321 58.084C276.113 57.764 276.985 57.604 277.937 57.604C278.625 57.604 279.237 57.716 279.773 57.94C280.309 58.164 280.757 58.48 281.117 58.888C281.485 59.288 281.761 59.772 281.945 60.34C282.137 60.908 282.233 61.536 282.233 62.224V70H281.225ZM276.653 68.596C277.013 68.596 277.345 68.56 277.649 68.488C277.961 68.416 278.249 68.312 278.513 68.176C278.785 68.04 279.041 67.876 279.281 67.684C279.521 67.484 279.761 67.26 280.001 67.012V64.564C279.041 64.596 278.225 64.672 277.553 64.792C276.881 64.912 276.333 65.068 275.909 65.26C275.493 65.452 275.189 65.684 274.997 65.956C274.805 66.22 274.709 66.512 274.709 66.832C274.709 67.144 274.757 67.412 274.853 67.636C274.957 67.86 275.097 68.044 275.273 68.188C275.449 68.324 275.653 68.428 275.885 68.5C276.125 68.564 276.381 68.596 276.653 68.596ZM304.048 66.352C304.184 66.352 304.304 66.404 304.408 66.508L305.392 67.588C304.688 68.412 303.828 69.052 302.812 69.508C301.804 69.964 300.592 70.192 299.176 70.192C297.928 70.192 296.796 69.976 295.78 69.544C294.772 69.112 293.908 68.508 293.188 67.732C292.476 66.956 291.924 66.028 291.532 64.948C291.148 63.868 290.956 62.68 290.956 61.384C290.956 60.088 291.16 58.9 291.568 57.82C291.976 56.74 292.552 55.816 293.296 55.048C294.04 54.272 294.928 53.668 295.96 53.236C297 52.804 298.144 52.588 299.392 52.588C300.616 52.588 301.7 52.788 302.644 53.188C303.596 53.588 304.424 54.12 305.128 54.784L304.312 55.936C304.256 56.016 304.188 56.084 304.108 56.14C304.036 56.188 303.932 56.212 303.796 56.212C303.644 56.212 303.464 56.136 303.256 55.984C303.056 55.832 302.788 55.664 302.452 55.48C302.124 55.288 301.712 55.116 301.216 54.964C300.72 54.812 300.108 54.736 299.38 54.736C298.516 54.736 297.72 54.888 296.992 55.192C296.272 55.496 295.652 55.932 295.132 56.5C294.612 57.068 294.208 57.764 293.92 58.588C293.632 59.412 293.488 60.344 293.488 61.384C293.488 62.44 293.636 63.384 293.932 64.216C294.236 65.04 294.648 65.736 295.168 66.304C295.696 66.872 296.316 67.308 297.028 67.612C297.74 67.908 298.504 68.056 299.32 68.056C299.824 68.056 300.276 68.028 300.676 67.972C301.076 67.908 301.444 67.816 301.78 67.696C302.124 67.576 302.444 67.42 302.74 67.228C303.036 67.036 303.332 66.808 303.628 66.544C303.692 66.488 303.756 66.444 303.82 66.412C303.892 66.372 303.968 66.352 304.048 66.352ZM310.479 63.628V70H308.007V52.78H313.179C314.275 52.78 315.227 52.908 316.035 53.164C316.851 53.42 317.523 53.784 318.051 54.256C318.587 54.72 318.987 55.284 319.251 55.948C319.515 56.604 319.647 57.336 319.647 58.144C319.647 58.952 319.507 59.692 319.227 60.364C318.947 61.028 318.535 61.604 317.991 62.092C317.447 62.58 316.771 62.96 315.963 63.232C315.163 63.496 314.235 63.628 313.179 63.628H310.479ZM310.479 61.66H313.179C313.827 61.66 314.399 61.576 314.895 61.408C315.399 61.232 315.819 60.992 316.155 60.688C316.491 60.376 316.743 60.004 316.911 59.572C317.087 59.14 317.175 58.664 317.175 58.144C317.175 57.608 317.091 57.132 316.923 56.716C316.763 56.292 316.515 55.932 316.179 55.636C315.851 55.34 315.435 55.116 314.931 54.964C314.435 54.804 313.851 54.724 313.179 54.724H310.479V61.66ZM329.188 68.02C329.884 68.02 330.504 67.904 331.048 67.672C331.6 67.432 332.064 67.1 332.44 66.676C332.824 66.252 333.116 65.748 333.316 65.164C333.516 64.572 333.616 63.92 333.616 63.208V52.78H336.088V63.208C336.088 64.208 335.928 65.136 335.608 65.992C335.288 66.848 334.832 67.588 334.24 68.212C333.648 68.836 332.924 69.324 332.068 69.676C331.212 70.028 330.252 70.204 329.188 70.204C328.116 70.204 327.152 70.028 326.296 69.676C325.448 69.324 324.724 68.836 324.124 68.212C323.532 67.588 323.076 66.848 322.756 65.992C322.436 65.136 322.276 64.208 322.276 63.208V52.78H324.748V63.208C324.748 63.912 324.848 64.56 325.048 65.152C325.248 65.736 325.536 66.244 325.912 66.676C326.296 67.1 326.764 67.432 327.316 67.672C327.868 67.904 328.492 68.02 329.188 68.02Z" fill="#1A1C1E"/>
<path d="M190.791 88.396C190.856 88.2887 190.94 88.1907 191.043 88.102C191.146 88.0133 191.265 87.969 191.4 87.969H192.408V98H191.05V90.874C191.05 90.678 191.055 90.4727 191.064 90.258C191.073 90.0387 191.094 89.8077 191.127 89.565C191.048 89.775 190.961 89.971 190.868 90.153C190.779 90.3303 190.691 90.4867 190.602 90.622L185.898 97.573C185.833 97.6803 185.749 97.7783 185.646 97.867C185.543 97.9557 185.424 98 185.289 98H184.281V87.969H185.639V95.102C185.639 95.3027 185.634 95.5127 185.625 95.732C185.616 95.9467 185.595 96.1777 185.562 96.425C185.641 96.2103 185.725 96.0143 185.814 95.837C185.907 95.655 185.998 95.4917 186.087 95.347L190.791 88.396ZM199.395 92.169C199.357 92.2203 199.32 92.26 199.283 92.288C199.245 92.316 199.194 92.33 199.129 92.33C199.059 92.33 198.982 92.302 198.898 92.246C198.814 92.1853 198.709 92.12 198.583 92.05C198.461 91.98 198.31 91.917 198.128 91.861C197.95 91.8003 197.731 91.77 197.47 91.77C197.12 91.77 196.812 91.833 196.546 91.959C196.28 92.0803 196.056 92.2577 195.874 92.491C195.696 92.7243 195.561 93.0067 195.468 93.338C195.379 93.6693 195.335 94.0403 195.335 94.451C195.335 94.8803 195.384 95.263 195.482 95.599C195.58 95.9303 195.717 96.2103 195.895 96.439C196.077 96.663 196.294 96.8357 196.546 96.957C196.802 97.0737 197.089 97.132 197.407 97.132C197.71 97.132 197.96 97.097 198.156 97.027C198.352 96.9523 198.513 96.8707 198.639 96.782C198.769 96.6933 198.877 96.614 198.961 96.544C199.049 96.4693 199.136 96.432 199.22 96.432C199.322 96.432 199.402 96.4717 199.458 96.551L199.808 97.006C199.654 97.1973 199.479 97.3607 199.283 97.496C199.087 97.6313 198.874 97.7457 198.646 97.839C198.422 97.9277 198.186 97.993 197.939 98.035C197.691 98.077 197.439 98.098 197.183 98.098C196.739 98.098 196.326 98.0163 195.944 97.853C195.566 97.6897 195.237 97.454 194.957 97.146C194.677 96.8333 194.457 96.4507 194.299 95.998C194.14 95.5453 194.061 95.0297 194.061 94.451C194.061 93.9237 194.133 93.436 194.278 92.988C194.427 92.54 194.642 92.155 194.922 91.833C195.206 91.5063 195.554 91.252 195.965 91.07C196.38 90.888 196.856 90.797 197.393 90.797C197.892 90.797 198.331 90.8787 198.709 91.042C199.091 91.2007 199.43 91.427 199.724 91.721L199.395 92.169ZM207.053 90.909V98H205.8V91.861H202.398V98H201.145V90.909H207.053ZM212.023 90.797C212.541 90.797 213.008 90.8833 213.423 91.056C213.838 91.2287 214.193 91.4737 214.487 91.791C214.781 92.1083 215.005 92.4933 215.159 92.946C215.318 93.394 215.397 93.8957 215.397 94.451C215.397 95.011 215.318 95.515 215.159 95.963C215.005 96.411 214.781 96.7937 214.487 97.111C214.193 97.4283 213.838 97.6733 213.423 97.846C213.008 98.014 212.541 98.098 212.023 98.098C211.5 98.098 211.029 98.014 210.609 97.846C210.194 97.6733 209.839 97.4283 209.545 97.111C209.251 96.7937 209.025 96.411 208.866 95.963C208.712 95.515 208.635 95.011 208.635 94.451C208.635 93.8957 208.712 93.394 208.866 92.946C209.025 92.4933 209.251 92.1083 209.545 91.791C209.839 91.4737 210.194 91.2287 210.609 91.056C211.029 90.8833 211.5 90.797 212.023 90.797ZM212.023 97.125C212.723 97.125 213.246 96.8917 213.591 96.425C213.936 95.9537 214.109 95.298 214.109 94.458C214.109 93.6133 213.936 92.9553 213.591 92.484C213.246 92.0127 212.723 91.777 212.023 91.777C211.668 91.777 211.358 91.8377 211.092 91.959C210.831 92.0803 210.611 92.2553 210.434 92.484C210.261 92.7127 210.131 92.995 210.042 93.331C209.958 93.6623 209.916 94.038 209.916 94.458C209.916 95.298 210.089 95.9537 210.434 96.425C210.784 96.8917 211.314 97.125 212.023 97.125ZM222.988 90.909V98H221.742V91.889H219.502C219.446 92.7897 219.362 93.569 219.25 94.227C219.138 94.8803 219.003 95.438 218.844 95.9C218.69 96.3573 218.515 96.7307 218.319 97.02C218.128 97.3047 217.925 97.5263 217.71 97.685C217.5 97.8437 217.281 97.951 217.052 98.007C216.828 98.063 216.604 98.091 216.38 98.091C215.983 98.091 215.785 98.028 215.785 97.902V97.111H216.149C216.308 97.111 216.469 97.083 216.632 97.027C216.795 96.971 216.954 96.8637 217.108 96.705C217.267 96.5463 217.418 96.3247 217.563 96.04C217.708 95.7507 217.838 95.3773 217.955 94.92C218.076 94.458 218.179 93.9003 218.263 93.247C218.352 92.589 218.419 91.8097 218.466 90.909H222.988ZM226.159 90.909V93.688H227.664C228.154 93.688 228.564 93.7463 228.896 93.863C229.232 93.9797 229.5 94.136 229.701 94.332C229.906 94.528 230.053 94.7543 230.142 95.011C230.23 95.2677 230.275 95.5337 230.275 95.809C230.275 96.1263 230.219 96.4203 230.107 96.691C229.995 96.957 229.829 97.188 229.61 97.384C229.39 97.5753 229.12 97.727 228.798 97.839C228.476 97.9463 228.105 98 227.685 98H224.962V90.909H226.159ZM226.159 94.598V97.09H227.685C227.937 97.09 228.154 97.0597 228.336 96.999C228.522 96.9337 228.676 96.845 228.798 96.733C228.919 96.6163 229.01 96.481 229.071 96.327C229.131 96.173 229.162 96.005 229.162 95.823C229.162 95.655 229.136 95.4987 229.085 95.354C229.033 95.2047 228.947 95.074 228.826 94.962C228.709 94.85 228.555 94.7613 228.364 94.696C228.172 94.6307 227.939 94.598 227.664 94.598H226.159ZM231.213 91.637C231.479 91.385 231.801 91.182 232.179 91.028C232.561 90.874 233.021 90.797 233.558 90.797C233.987 90.797 234.365 90.8507 234.692 90.958C235.018 91.0607 235.291 91.1983 235.511 91.371C235.735 91.5437 235.903 91.742 236.015 91.966C236.131 92.1853 236.19 92.414 236.19 92.652C236.19 92.792 236.166 92.939 236.12 93.093C236.078 93.247 236.005 93.394 235.903 93.534C235.8 93.674 235.667 93.8047 235.504 93.926C235.34 94.0473 235.137 94.1453 234.895 94.22C235.347 94.3553 235.702 94.5723 235.959 94.871C236.22 95.1697 236.351 95.536 236.351 95.97C236.351 96.2967 236.276 96.593 236.127 96.859C235.977 97.1203 235.777 97.3443 235.525 97.531C235.273 97.713 234.979 97.853 234.643 97.951C234.311 98.049 233.964 98.098 233.6 98.098C233.371 98.098 233.138 98.077 232.9 98.035C232.666 97.993 232.438 97.9277 232.214 97.839C231.99 97.7457 231.777 97.6313 231.577 97.496C231.381 97.3607 231.206 97.1973 231.052 97.006L231.402 96.551C231.458 96.4717 231.537 96.432 231.64 96.432C231.724 96.432 231.812 96.4693 231.906 96.544C232.004 96.614 232.123 96.6933 232.263 96.782C232.403 96.8707 232.573 96.9523 232.774 97.027C232.979 97.097 233.229 97.132 233.523 97.132C233.779 97.132 234.008 97.1017 234.209 97.041C234.414 96.9757 234.587 96.887 234.727 96.775C234.867 96.663 234.974 96.53 235.049 96.376C235.123 96.222 235.161 96.054 235.161 95.872C235.161 95.522 235.014 95.2397 234.72 95.025C234.43 94.8103 233.989 94.703 233.397 94.703H232.592V93.877H233.397C233.653 93.877 233.884 93.8513 234.09 93.8C234.295 93.744 234.47 93.6693 234.615 93.576C234.759 93.4827 234.869 93.3707 234.944 93.24C235.018 93.1047 235.056 92.96 235.056 92.806C235.056 92.666 235.023 92.533 234.958 92.407C234.897 92.281 234.801 92.1713 234.671 92.078C234.545 91.9847 234.386 91.91 234.195 91.854C234.003 91.798 233.779 91.77 233.523 91.77C233.243 91.77 233.005 91.798 232.809 91.854C232.617 91.91 232.454 91.9707 232.319 92.036C232.188 92.1013 232.081 92.162 231.997 92.218C231.913 92.274 231.84 92.302 231.78 92.302C231.719 92.302 231.668 92.2903 231.626 92.267C231.588 92.2437 231.546 92.1947 231.5 92.12L231.213 91.637ZM239.921 100.093C239.879 100.186 239.826 100.261 239.76 100.317C239.7 100.373 239.604 100.401 239.473 100.401H238.549L239.844 97.587L236.918 90.909H237.996C238.104 90.909 238.188 90.937 238.248 90.993C238.314 91.0443 238.358 91.1027 238.381 91.168L240.278 95.634C240.316 95.7413 240.351 95.8463 240.383 95.949C240.416 96.047 240.444 96.1497 240.467 96.257C240.528 96.047 240.598 95.837 240.677 95.627L242.518 91.168C242.546 91.0933 242.593 91.0327 242.658 90.986C242.728 90.9347 242.805 90.909 242.889 90.909H243.876L239.921 100.093ZM247.691 90.797C248.115 90.797 248.507 90.8693 248.867 91.014C249.231 91.154 249.543 91.3593 249.805 91.63C250.071 91.896 250.278 92.2273 250.428 92.624C250.577 93.016 250.652 93.464 250.652 93.968C250.652 94.164 250.631 94.2947 250.589 94.36C250.547 94.4253 250.467 94.458 250.351 94.458H245.612C245.621 94.906 245.682 95.2957 245.794 95.627C245.906 95.9583 246.06 96.236 246.256 96.46C246.452 96.6793 246.685 96.845 246.956 96.957C247.226 97.0643 247.53 97.118 247.866 97.118C248.178 97.118 248.447 97.083 248.671 97.013C248.899 96.9383 249.095 96.859 249.259 96.775C249.422 96.691 249.557 96.614 249.665 96.544C249.777 96.4693 249.872 96.432 249.952 96.432C250.054 96.432 250.134 96.4717 250.19 96.551L250.54 97.006C250.386 97.1927 250.201 97.356 249.987 97.496C249.772 97.6313 249.541 97.7433 249.294 97.832C249.051 97.9207 248.799 97.986 248.538 98.028C248.276 98.0747 248.017 98.098 247.761 98.098C247.271 98.098 246.818 98.0163 246.403 97.853C245.992 97.685 245.635 97.4423 245.332 97.125C245.033 96.803 244.8 96.4063 244.632 95.935C244.464 95.4637 244.38 94.9223 244.38 94.311C244.38 93.8163 244.454 93.3543 244.604 92.925C244.758 92.4957 244.977 92.1247 245.262 91.812C245.546 91.4947 245.894 91.2473 246.305 91.07C246.715 90.888 247.177 90.797 247.691 90.797ZM247.719 91.714C247.117 91.714 246.643 91.889 246.298 92.239C245.952 92.5843 245.738 93.065 245.654 93.681H249.532C249.532 93.3917 249.49 93.128 249.406 92.89C249.326 92.6473 249.207 92.4397 249.049 92.267C248.895 92.0897 248.706 91.9543 248.482 91.861C248.258 91.763 248.003 91.714 247.719 91.714ZM251.248 90.909H257.94V91.861H255.217V98H253.971V91.861H251.248V90.909ZM263.776 92.169C263.738 92.2203 263.701 92.26 263.664 92.288C263.626 92.316 263.575 92.33 263.51 92.33C263.44 92.33 263.363 92.302 263.279 92.246C263.195 92.1853 263.09 92.12 262.964 92.05C262.842 91.98 262.691 91.917 262.509 91.861C262.331 91.8003 262.112 91.77 261.851 91.77C261.501 91.77 261.193 91.833 260.927 91.959C260.661 92.0803 260.437 92.2577 260.255 92.491C260.077 92.7243 259.942 93.0067 259.849 93.338C259.76 93.6693 259.716 94.0403 259.716 94.451C259.716 94.8803 259.765 95.263 259.863 95.599C259.961 95.9303 260.098 96.2103 260.276 96.439C260.458 96.663 260.675 96.8357 260.927 96.957C261.183 97.0737 261.47 97.132 261.788 97.132C262.091 97.132 262.341 97.097 262.537 97.027C262.733 96.9523 262.894 96.8707 263.02 96.782C263.15 96.6933 263.258 96.614 263.342 96.544C263.43 96.4693 263.517 96.432 263.601 96.432C263.703 96.432 263.783 96.4717 263.839 96.551L264.189 97.006C264.035 97.1973 263.86 97.3607 263.664 97.496C263.468 97.6313 263.255 97.7457 263.027 97.839C262.803 97.9277 262.567 97.993 262.32 98.035C262.072 98.077 261.82 98.098 261.564 98.098C261.12 98.098 260.707 98.0163 260.325 97.853C259.947 97.6897 259.618 97.454 259.338 97.146C259.058 96.8333 258.838 96.4507 258.68 95.998C258.521 95.5453 258.442 95.0297 258.442 94.451C258.442 93.9237 258.514 93.436 258.659 92.988C258.808 92.54 259.023 92.155 259.303 91.833C259.587 91.5063 259.935 91.252 260.346 91.07C260.761 90.888 261.237 90.797 261.774 90.797C262.273 90.797 262.712 90.8787 263.09 91.042C263.472 91.2007 263.811 91.427 264.105 91.721L263.776 92.169ZM270.447 98H269.257V95.011H268.711C268.58 95.011 268.471 95.0227 268.382 95.046C268.298 95.0647 268.223 95.0927 268.158 95.13C268.097 95.1673 268.044 95.2163 267.997 95.277C267.95 95.333 267.901 95.3983 267.85 95.473L266.296 97.566C266.217 97.7153 266.119 97.825 266.002 97.895C265.89 97.965 265.724 98 265.505 98H264.637L266.695 95.326C266.858 95.0553 267.08 94.8687 267.36 94.766C267.001 94.7193 266.697 94.6377 266.45 94.521C266.203 94.3997 266 94.255 265.841 94.087C265.687 93.919 265.575 93.7347 265.505 93.534C265.435 93.3333 265.4 93.1303 265.4 92.925C265.4 92.6823 265.447 92.4397 265.54 92.197C265.638 91.9543 265.792 91.7397 266.002 91.553C266.212 91.3617 266.483 91.2077 266.814 91.091C267.15 90.9697 267.556 90.909 268.032 90.909H270.447V98ZM266.653 92.995C266.653 93.3777 266.793 93.6787 267.073 93.898C267.353 94.1127 267.736 94.22 268.221 94.22H269.257V91.749H268.067C267.801 91.749 267.577 91.7887 267.395 91.868C267.213 91.9427 267.066 92.0407 266.954 92.162C266.847 92.2787 266.77 92.4117 266.723 92.561C266.676 92.7057 266.653 92.8503 266.653 92.995Z" fill="#7C7F89"/>
<line x1="183" y1="220.5" x2="593" y2="220.5" stroke="#DFE1E5"/>
<line x1="183" y1="315.5" x2="593" y2="315.5" stroke="#DFE1E5"/>
<path d="M183 295.964C235.84 295.964 242.59 225.213 295.43 225.213C348.27 225.213 339.51 169 392.35 169C445.19 169 446.66 186 499.5 186C552.34 186 540.16 213 593 213" stroke="#6BE165" stroke-width="5.81515" stroke-linecap="round"/>
</g>
<g filter="url(#filter1_d_968_6332)">
<rect x="434" y="280" width="311" height="104" rx="24" fill="white" shape-rendering="crispEdges"/>
<path d="M461.718 317H459.603V304.04H461.718V317ZM468.821 310.646C469.289 310.646 469.7 310.586 470.054 310.466C470.414 310.346 470.711 310.178 470.945 309.962C471.185 309.74 471.365 309.473 471.485 309.161C471.605 308.849 471.665 308.501 471.665 308.117C471.665 307.739 471.605 307.4 471.485 307.1C471.371 306.8 471.197 306.545 470.963 306.335C470.729 306.125 470.432 305.966 470.072 305.858C469.718 305.744 469.301 305.687 468.821 305.687H466.895V310.646H468.821ZM468.821 304.04C469.667 304.04 470.399 304.139 471.017 304.337C471.641 304.535 472.154 304.814 472.556 305.174C472.964 305.528 473.267 305.957 473.465 306.461C473.663 306.959 473.762 307.511 473.762 308.117C473.762 308.735 473.657 309.302 473.447 309.818C473.237 310.328 472.925 310.769 472.511 311.141C472.097 311.507 471.581 311.795 470.963 312.005C470.351 312.209 469.637 312.311 468.821 312.311H466.895V317H464.789V304.04H468.821ZM484.311 312.986C483.621 313.01 483.039 313.067 482.565 313.157C482.091 313.241 481.707 313.352 481.413 313.49C481.119 313.622 480.906 313.781 480.774 313.967C480.648 314.153 480.585 314.357 480.585 314.579C480.585 314.795 480.618 314.981 480.684 315.137C480.756 315.287 480.852 315.413 480.972 315.515C481.098 315.611 481.242 315.683 481.404 315.731C481.572 315.773 481.755 315.794 481.953 315.794C482.457 315.794 482.889 315.701 483.249 315.515C483.615 315.323 483.969 315.047 484.311 314.687V312.986ZM479.181 309.098C480.219 308.132 481.455 307.649 482.889 307.649C483.417 307.649 483.885 307.736 484.293 307.91C484.707 308.078 485.052 308.318 485.328 308.63C485.61 308.942 485.823 309.314 485.967 309.746C486.117 310.172 486.192 310.646 486.192 311.168V317H485.328C485.142 317 485.001 316.973 484.905 316.919C484.809 316.859 484.728 316.742 484.662 316.568L484.473 315.821C484.239 316.031 484.008 316.22 483.78 316.388C483.552 316.55 483.315 316.688 483.069 316.802C482.829 316.916 482.568 317 482.286 317.054C482.01 317.114 481.704 317.144 481.368 317.144C480.996 317.144 480.648 317.093 480.324 316.991C480.006 316.889 479.73 316.736 479.496 316.532C479.262 316.322 479.076 316.064 478.938 315.758C478.806 315.452 478.74 315.092 478.74 314.678C478.74 314.324 478.833 313.979 479.019 313.643C479.211 313.307 479.523 313.007 479.955 312.743C480.393 312.473 480.966 312.251 481.674 312.077C482.388 311.903 483.267 311.804 484.311 311.78V311.168C484.311 310.508 484.17 310.016 483.888 309.692C483.606 309.368 483.192 309.206 482.646 309.206C482.274 309.206 481.962 309.254 481.71 309.35C481.458 309.44 481.239 309.539 481.053 309.647C480.867 309.755 480.702 309.857 480.558 309.953C480.414 310.043 480.261 310.088 480.099 310.088C479.967 310.088 479.853 310.055 479.757 309.989C479.667 309.917 479.592 309.83 479.532 309.728L479.181 309.098ZM494.677 315.605V309.323H492.103C492.049 310.163 491.971 310.916 491.869 311.582C491.773 312.248 491.659 312.839 491.527 313.355C491.401 313.865 491.26 314.306 491.104 314.678C490.948 315.044 490.786 315.353 490.618 315.605H494.677ZM498.232 315.542V319.529C498.232 319.709 498.178 319.85 498.07 319.952C497.968 320.06 497.836 320.114 497.674 320.114H496.477V317H489.214V319.565C489.214 319.703 489.169 319.829 489.079 319.943C488.995 320.057 488.863 320.114 488.683 320.114H487.459V315.605H487.738C487.948 315.605 488.155 315.575 488.359 315.515C488.563 315.449 488.758 315.32 488.944 315.128C489.13 314.936 489.307 314.666 489.475 314.318C489.643 313.964 489.793 313.499 489.925 312.923C490.063 312.347 490.183 311.642 490.285 310.808C490.387 309.974 490.468 308.978 490.528 307.82H496.549V315.542H498.232ZM501.678 314.696C501.948 315.044 502.242 315.29 502.56 315.434C502.884 315.572 503.241 315.641 503.631 315.641C504.387 315.641 504.975 315.365 505.395 314.813C505.821 314.261 506.034 313.439 506.034 312.347C506.034 311.783 505.986 311.303 505.89 310.907C505.794 310.505 505.656 310.178 505.476 309.926C505.296 309.674 505.077 309.491 504.819 309.377C504.561 309.263 504.27 309.206 503.946 309.206C503.454 309.206 503.028 309.314 502.668 309.53C502.314 309.74 501.984 310.043 501.678 310.439V314.696ZM501.579 309.152C501.963 308.702 502.398 308.339 502.884 308.063C503.376 307.787 503.946 307.649 504.594 307.649C505.11 307.649 505.578 307.754 505.998 307.964C506.418 308.168 506.778 308.468 507.078 308.864C507.378 309.26 507.609 309.752 507.771 310.34C507.939 310.922 508.023 311.591 508.023 312.347C508.023 313.025 507.93 313.658 507.744 314.246C507.564 314.828 507.303 315.335 506.961 315.767C506.619 316.193 506.205 316.529 505.719 316.775C505.233 317.015 504.684 317.135 504.072 317.135C503.532 317.135 503.073 317.048 502.695 316.874C502.323 316.7 501.984 316.46 501.678 316.154V320.051H499.743V307.82H500.913C501.177 307.82 501.345 307.943 501.417 308.189L501.579 309.152ZM515.925 311.375C515.925 311.051 515.877 310.751 515.781 310.475C515.691 310.193 515.556 309.95 515.376 309.746C515.196 309.536 514.971 309.374 514.701 309.26C514.437 309.14 514.131 309.08 513.783 309.08C513.081 309.08 512.529 309.281 512.127 309.683C511.725 310.085 511.47 310.649 511.362 311.375H515.925ZM511.308 312.563C511.332 313.085 511.413 313.538 511.551 313.922C511.689 314.3 511.872 314.615 512.1 314.867C512.334 315.119 512.61 315.308 512.928 315.434C513.252 315.554 513.612 315.614 514.008 315.614C514.386 315.614 514.713 315.572 514.989 315.488C515.265 315.398 515.505 315.302 515.709 315.2C515.913 315.092 516.087 314.996 516.231 314.912C516.375 314.822 516.507 314.777 516.627 314.777C516.783 314.777 516.903 314.837 516.987 314.957L517.536 315.668C517.308 315.938 517.05 316.166 516.762 316.352C516.474 316.538 516.168 316.691 515.844 316.811C515.52 316.925 515.187 317.006 514.845 317.054C514.503 317.108 514.17 317.135 513.846 317.135C513.21 317.135 512.619 317.03 512.073 316.82C511.533 316.604 511.062 316.289 510.66 315.875C510.264 315.461 509.952 314.948 509.724 314.336C509.502 313.724 509.391 313.019 509.391 312.221C509.391 311.585 509.49 310.991 509.688 310.439C509.892 309.887 510.18 309.407 510.552 308.999C510.93 308.591 511.386 308.27 511.92 308.036C512.46 307.796 513.069 307.676 513.747 307.676C514.311 307.676 514.833 307.769 515.313 307.955C515.793 308.135 516.207 308.402 516.555 308.756C516.903 309.11 517.173 309.545 517.365 310.061C517.563 310.571 517.662 311.153 517.662 311.807C517.662 312.107 517.629 312.308 517.563 312.41C517.497 312.512 517.377 312.563 517.203 312.563H511.308ZM525.955 309.62C525.895 309.698 525.838 309.758 525.784 309.8C525.73 309.842 525.652 309.863 525.55 309.863C525.448 309.863 525.34 309.827 525.226 309.755C525.118 309.683 524.986 309.605 524.83 309.521C524.68 309.431 524.497 309.35 524.281 309.278C524.065 309.206 523.795 309.17 523.471 309.17C523.051 309.17 522.682 309.245 522.364 309.395C522.052 309.545 521.788 309.761 521.572 310.043C521.362 310.319 521.203 310.658 521.095 311.06C520.993 311.456 520.942 311.903 520.942 312.401C520.942 312.917 520.999 313.376 521.113 313.778C521.227 314.18 521.389 314.519 521.599 314.795C521.815 315.071 522.073 315.281 522.373 315.425C522.679 315.569 523.021 315.641 523.399 315.641C523.771 315.641 524.074 315.596 524.308 315.506C524.542 315.416 524.737 315.317 524.893 315.209C525.049 315.101 525.181 315.002 525.289 314.912C525.403 314.822 525.523 314.777 525.649 314.777C525.805 314.777 525.925 314.837 526.009 314.957L526.558 315.668C526.336 315.938 526.09 316.166 525.82 316.352C525.55 316.538 525.265 316.691 524.965 316.811C524.665 316.925 524.353 317.006 524.029 317.054C523.705 317.108 523.378 317.135 523.048 317.135C522.478 317.135 521.944 317.03 521.446 316.82C520.954 316.604 520.522 316.295 520.15 315.893C519.784 315.485 519.493 314.99 519.277 314.408C519.067 313.82 518.962 313.151 518.962 312.401C518.962 311.723 519.058 311.096 519.25 310.52C519.442 309.938 519.721 309.437 520.087 309.017C520.459 308.597 520.918 308.27 521.464 308.036C522.01 307.796 522.64 307.676 523.354 307.676C524.02 307.676 524.605 307.784 525.109 308C525.619 308.216 526.072 308.522 526.468 308.918L525.955 309.62Z" fill="#1A1C1E"/>
<path d="M461.952 355.68H466.832V340.432C466.832 339.963 466.848 339.477 466.88 338.976L462.928 342.352C462.779 342.469 462.629 342.544 462.48 342.576C462.341 342.608 462.208 342.613 462.08 342.592C461.952 342.56 461.835 342.512 461.728 342.448C461.621 342.384 461.541 342.315 461.488 342.24L460.544 340.912L467.408 334.992H469.872V355.68H474.336V358H461.952V355.68ZM487.635 348.896C487.848 348.608 488.051 348.331 488.243 348.064C488.445 347.797 488.637 347.536 488.819 347.28C488.243 347.728 487.592 348.064 486.867 348.288C486.152 348.512 485.395 348.624 484.595 348.624C483.741 348.624 482.925 348.48 482.147 348.192C481.379 347.904 480.701 347.483 480.115 346.928C479.528 346.363 479.059 345.669 478.707 344.848C478.355 344.027 478.179 343.088 478.179 342.032C478.179 341.029 478.365 340.085 478.739 339.2C479.112 338.315 479.635 337.547 480.307 336.896C480.989 336.245 481.8 335.733 482.739 335.36C483.677 334.976 484.707 334.784 485.827 334.784C486.936 334.784 487.944 334.965 488.851 335.328C489.757 335.691 490.531 336.203 491.171 336.864C491.811 337.515 492.307 338.299 492.659 339.216C493.011 340.123 493.187 341.125 493.187 342.224C493.187 342.896 493.123 343.536 492.995 344.144C492.877 344.741 492.701 345.328 492.467 345.904C492.243 346.469 491.965 347.035 491.635 347.6C491.304 348.155 490.931 348.725 490.515 349.312L484.979 357.28C484.84 357.493 484.632 357.669 484.355 357.808C484.077 357.936 483.768 358 483.427 358H480.627L487.635 348.896ZM490.275 341.872C490.275 341.168 490.163 340.539 489.939 339.984C489.715 339.419 489.405 338.939 489.011 338.544C488.616 338.149 488.141 337.845 487.587 337.632C487.032 337.419 486.429 337.312 485.779 337.312C485.096 337.312 484.472 337.424 483.907 337.648C483.352 337.872 482.872 338.181 482.467 338.576C482.072 338.971 481.763 339.445 481.539 340C481.325 340.555 481.219 341.157 481.219 341.808C481.219 343.237 481.608 344.341 482.387 345.12C483.165 345.899 484.243 346.288 485.619 346.288C486.365 346.288 487.027 346.171 487.603 345.936C488.179 345.691 488.664 345.365 489.059 344.96C489.453 344.555 489.752 344.085 489.955 343.552C490.168 343.019 490.275 342.459 490.275 341.872ZM504.597 334.784C505.589 334.784 506.506 334.933 507.349 335.232C508.192 335.52 508.922 335.941 509.541 336.496C510.16 337.04 510.645 337.712 510.997 338.512C511.349 339.301 511.525 340.197 511.525 341.2C511.525 342.053 511.397 342.848 511.141 343.584C510.896 344.309 510.554 345.003 510.117 345.664C509.69 346.325 509.189 346.971 508.613 347.6C508.048 348.229 507.445 348.864 506.805 349.504L500.901 355.52C501.338 355.403 501.781 355.307 502.229 355.232C502.677 355.157 503.104 355.12 503.509 355.12H510.901C511.232 355.12 511.493 355.216 511.685 355.408C511.877 355.6 511.973 355.851 511.973 356.16V358H496.581V356.96C496.581 356.747 496.624 356.528 496.709 356.304C496.805 356.069 496.949 355.861 497.141 355.68L504.421 348.352C505.029 347.733 505.578 347.141 506.069 346.576C506.56 346.011 506.981 345.445 507.333 344.88C507.685 344.315 507.952 343.744 508.133 343.168C508.325 342.581 508.421 341.957 508.421 341.296C508.421 340.645 508.32 340.075 508.117 339.584C507.914 339.093 507.632 338.683 507.269 338.352C506.917 338.021 506.496 337.776 506.005 337.616C505.514 337.456 504.986 337.376 504.421 337.376C503.856 337.376 503.338 337.461 502.869 337.632C502.4 337.792 501.978 338.021 501.605 338.32C501.242 338.608 500.933 338.955 500.677 339.36C500.432 339.755 500.256 340.192 500.149 340.672C500.01 341.067 499.824 341.333 499.589 341.472C499.365 341.6 499.045 341.632 498.629 341.568L497.029 341.28C497.189 340.224 497.482 339.291 497.909 338.48C498.346 337.669 498.896 336.992 499.557 336.448C500.218 335.893 500.976 335.477 501.829 335.2C502.682 334.923 503.605 334.784 504.597 334.784ZM515.4 356.16C515.4 355.872 515.453 355.605 515.56 355.36C515.666 355.104 515.81 354.88 515.992 354.688C516.173 354.496 516.392 354.347 516.648 354.24C516.904 354.133 517.176 354.08 517.464 354.08C517.752 354.08 518.018 354.133 518.264 354.24C518.52 354.347 518.738 354.496 518.92 354.688C519.112 354.88 519.261 355.104 519.368 355.36C519.474 355.605 519.528 355.872 519.528 356.16C519.528 356.459 519.474 356.736 519.368 356.992C519.261 357.237 519.112 357.456 518.92 357.648C518.738 357.829 518.52 357.973 518.264 358.08C518.018 358.187 517.752 358.24 517.464 358.24C517.176 358.24 516.904 358.187 516.648 358.08C516.392 357.973 516.173 357.829 515.992 357.648C515.81 357.456 515.666 357.237 515.56 356.992C515.453 356.736 515.4 356.459 515.4 356.16ZM525.202 355.68H530.082V340.432C530.082 339.963 530.098 339.477 530.13 338.976L526.178 342.352C526.029 342.469 525.879 342.544 525.73 342.576C525.591 342.608 525.458 342.613 525.33 342.592C525.202 342.56 525.085 342.512 524.978 342.448C524.871 342.384 524.791 342.315 524.738 342.24L523.794 340.912L530.658 334.992H533.122V355.68H537.586V358H525.202V355.68ZM549.285 334.784C550.277 334.784 551.194 334.933 552.037 335.232C552.879 335.52 553.61 335.941 554.229 336.496C554.847 337.04 555.333 337.712 555.685 338.512C556.037 339.301 556.213 340.197 556.213 341.2C556.213 342.053 556.085 342.848 555.829 343.584C555.583 344.309 555.242 345.003 554.805 345.664C554.378 346.325 553.877 346.971 553.301 347.6C552.735 348.229 552.133 348.864 551.493 349.504L545.589 355.52C546.026 355.403 546.469 355.307 546.917 355.232C547.365 355.157 547.791 355.12 548.197 355.12H555.589C555.919 355.12 556.181 355.216 556.373 355.408C556.565 355.6 556.661 355.851 556.661 356.16V358H541.269V356.96C541.269 356.747 541.311 356.528 541.397 356.304C541.493 356.069 541.637 355.861 541.829 355.68L549.109 348.352C549.717 347.733 550.266 347.141 550.757 346.576C551.247 346.011 551.669 345.445 552.021 344.88C552.373 344.315 552.639 343.744 552.821 343.168C553.013 342.581 553.109 341.957 553.109 341.296C553.109 340.645 553.007 340.075 552.805 339.584C552.602 339.093 552.319 338.683 551.957 338.352C551.605 338.021 551.183 337.776 550.693 337.616C550.202 337.456 549.674 337.376 549.109 337.376C548.543 337.376 548.026 337.461 547.557 337.632C547.087 337.792 546.666 338.021 546.293 338.32C545.93 338.608 545.621 338.955 545.365 339.36C545.119 339.755 544.943 340.192 544.837 340.672C544.698 341.067 544.511 341.333 544.277 341.472C544.053 341.6 543.733 341.632 543.317 341.568L541.717 341.28C541.877 340.224 542.17 339.291 542.597 338.48C543.034 337.669 543.583 336.992 544.245 336.448C544.906 335.893 545.663 335.477 546.517 335.2C547.37 334.923 548.293 334.784 549.285 334.784ZM560.087 356.16C560.087 355.872 560.14 355.605 560.247 355.36C560.354 355.104 560.498 354.88 560.679 354.688C560.86 354.496 561.079 354.347 561.335 354.24C561.591 354.133 561.863 354.08 562.151 354.08C562.439 354.08 562.706 354.133 562.951 354.24C563.207 354.347 563.426 354.496 563.607 354.688C563.799 354.88 563.948 355.104 564.055 355.36C564.162 355.605 564.215 355.872 564.215 356.16C564.215 356.459 564.162 356.736 564.055 356.992C563.948 357.237 563.799 357.456 563.607 357.648C563.426 357.829 563.207 357.973 562.951 358.08C562.706 358.187 562.439 358.24 562.151 358.24C561.863 358.24 561.591 358.187 561.335 358.08C561.079 357.973 560.86 357.829 560.679 357.648C560.498 357.456 560.354 357.237 560.247 356.992C560.14 356.736 560.087 356.459 560.087 356.16ZM575.41 334.784C576.402 334.784 577.319 334.933 578.162 335.232C579.004 335.52 579.735 335.941 580.354 336.496C580.972 337.04 581.458 337.712 581.81 338.512C582.162 339.301 582.338 340.197 582.338 341.2C582.338 342.053 582.21 342.848 581.954 343.584C581.708 344.309 581.367 345.003 580.93 345.664C580.503 346.325 580.002 346.971 579.426 347.6C578.86 348.229 578.258 348.864 577.618 349.504L571.714 355.52C572.151 355.403 572.594 355.307 573.042 355.232C573.49 355.157 573.916 355.12 574.322 355.12H581.714C582.044 355.12 582.306 355.216 582.498 355.408C582.69 355.6 582.786 355.851 582.786 356.16V358H567.394V356.96C567.394 356.747 567.436 356.528 567.522 356.304C567.618 356.069 567.762 355.861 567.954 355.68L575.234 348.352C575.842 347.733 576.391 347.141 576.882 346.576C577.372 346.011 577.794 345.445 578.146 344.88C578.498 344.315 578.764 343.744 578.946 343.168C579.138 342.581 579.234 341.957 579.234 341.296C579.234 340.645 579.132 340.075 578.93 339.584C578.727 339.093 578.444 338.683 578.082 338.352C577.73 338.021 577.308 337.776 576.818 337.616C576.327 337.456 575.799 337.376 575.234 337.376C574.668 337.376 574.151 337.461 573.682 337.632C573.212 337.792 572.791 338.021 572.418 338.32C572.055 338.608 571.746 338.955 571.49 339.36C571.244 339.755 571.068 340.192 570.962 340.672C570.823 341.067 570.636 341.333 570.402 341.472C570.178 341.6 569.858 341.632 569.442 341.568L567.842 341.28C568.002 340.224 568.295 339.291 568.722 338.48C569.159 337.669 569.708 336.992 570.37 336.448C571.031 335.893 571.788 335.477 572.642 335.2C573.495 334.923 574.418 334.784 575.41 334.784ZM593.972 334.784C594.964 334.784 595.881 334.933 596.724 335.232C597.567 335.52 598.297 335.941 598.916 336.496C599.535 337.04 600.02 337.712 600.372 338.512C600.724 339.301 600.9 340.197 600.9 341.2C600.9 342.053 600.772 342.848 600.516 343.584C600.271 344.309 599.929 345.003 599.492 345.664C599.065 346.325 598.564 346.971 597.988 347.6C597.423 348.229 596.82 348.864 596.18 349.504L590.276 355.52C590.713 355.403 591.156 355.307 591.604 355.232C592.052 355.157 592.479 355.12 592.884 355.12H600.276C600.607 355.12 600.868 355.216 601.06 355.408C601.252 355.6 601.348 355.851 601.348 356.16V358H585.956V356.96C585.956 356.747 585.999 356.528 586.084 356.304C586.18 356.069 586.324 355.861 586.516 355.68L593.796 348.352C594.404 347.733 594.953 347.141 595.444 346.576C595.935 346.011 596.356 345.445 596.708 344.88C597.06 344.315 597.327 343.744 597.508 343.168C597.7 342.581 597.796 341.957 597.796 341.296C597.796 340.645 597.695 340.075 597.492 339.584C597.289 339.093 597.007 338.683 596.644 338.352C596.292 338.021 595.871 337.776 595.38 337.616C594.889 337.456 594.361 337.376 593.796 337.376C593.231 337.376 592.713 337.461 592.244 337.632C591.775 337.792 591.353 338.021 590.98 338.32C590.617 338.608 590.308 338.955 590.052 339.36C589.807 339.755 589.631 340.192 589.524 340.672C589.385 341.067 589.199 341.333 588.964 341.472C588.74 341.6 588.42 341.632 588.004 341.568L586.404 341.28C586.564 340.224 586.857 339.291 587.284 338.48C587.721 337.669 588.271 336.992 588.932 336.448C589.593 335.893 590.351 335.477 591.204 335.2C592.057 334.923 592.98 334.784 593.972 334.784ZM617.351 349.648H620.727V351.408C620.727 351.589 620.668 351.744 620.551 351.872C620.444 351.989 620.284 352.048 620.071 352.048H617.351V358H614.695V352.048H604.583C604.359 352.048 604.167 351.984 604.007 351.856C603.847 351.728 603.745 351.563 603.703 351.36L603.399 349.808L614.519 335.024H617.351V349.648ZM614.695 340.528C614.695 340.24 614.705 339.925 614.727 339.584C614.748 339.243 614.785 338.891 614.839 338.528L606.679 349.648H614.695V340.528ZM623.337 356.16C623.337 355.872 623.39 355.605 623.497 355.36C623.604 355.104 623.748 354.88 623.929 354.688C624.11 354.496 624.329 354.347 624.585 354.24C624.841 354.133 625.113 354.08 625.401 354.08C625.689 354.08 625.956 354.133 626.201 354.24C626.457 354.347 626.676 354.496 626.857 354.688C627.049 354.88 627.198 355.104 627.305 355.36C627.412 355.605 627.465 355.872 627.465 356.16C627.465 356.459 627.412 356.736 627.305 356.992C627.198 357.237 627.049 357.456 626.857 357.648C626.676 357.829 626.457 357.973 626.201 358.08C625.956 358.187 625.689 358.24 625.401 358.24C625.113 358.24 624.841 358.187 624.585 358.08C624.329 357.973 624.11 357.829 623.929 357.648C623.748 357.456 623.604 357.237 623.497 356.992C623.39 356.736 623.337 356.459 623.337 356.16ZM638.66 334.784C639.652 334.784 640.569 334.933 641.412 335.232C642.254 335.52 642.985 335.941 643.604 336.496C644.222 337.04 644.708 337.712 645.06 338.512C645.412 339.301 645.588 340.197 645.588 341.2C645.588 342.053 645.46 342.848 645.204 343.584C644.958 344.309 644.617 345.003 644.18 345.664C643.753 346.325 643.252 346.971 642.676 347.6C642.11 348.229 641.508 348.864 640.868 349.504L634.964 355.52C635.401 355.403 635.844 355.307 636.292 355.232C636.74 355.157 637.166 355.12 637.572 355.12H644.964C645.294 355.12 645.556 355.216 645.748 355.408C645.94 355.6 646.036 355.851 646.036 356.16V358H630.644V356.96C630.644 356.747 630.686 356.528 630.772 356.304C630.868 356.069 631.012 355.861 631.204 355.68L638.484 348.352C639.092 347.733 639.641 347.141 640.132 346.576C640.622 346.011 641.044 345.445 641.396 344.88C641.748 344.315 642.014 343.744 642.196 343.168C642.388 342.581 642.484 341.957 642.484 341.296C642.484 340.645 642.382 340.075 642.18 339.584C641.977 339.093 641.694 338.683 641.332 338.352C640.98 338.021 640.558 337.776 640.068 337.616C639.577 337.456 639.049 337.376 638.484 337.376C637.918 337.376 637.401 337.461 636.932 337.632C636.462 337.792 636.041 338.021 635.668 338.32C635.305 338.608 634.996 338.955 634.74 339.36C634.494 339.755 634.318 340.192 634.212 340.672C634.073 341.067 633.886 341.333 633.652 341.472C633.428 341.6 633.108 341.632 632.692 341.568L631.092 341.28C631.252 340.224 631.545 339.291 631.972 338.48C632.409 337.669 632.958 336.992 633.62 336.448C634.281 335.893 635.038 335.477 635.892 335.2C636.745 334.923 637.668 334.784 638.66 334.784ZM657.222 334.784C658.214 334.784 659.131 334.933 659.974 335.232C660.817 335.52 661.547 335.941 662.166 336.496C662.785 337.04 663.27 337.712 663.622 338.512C663.974 339.301 664.15 340.197 664.15 341.2C664.15 342.053 664.022 342.848 663.766 343.584C663.521 344.309 663.179 345.003 662.742 345.664C662.315 346.325 661.814 346.971 661.238 347.6C660.673 348.229 660.07 348.864 659.43 349.504L653.526 355.52C653.963 355.403 654.406 355.307 654.854 355.232C655.302 355.157 655.729 355.12 656.134 355.12H663.526C663.857 355.12 664.118 355.216 664.31 355.408C664.502 355.6 664.598 355.851 664.598 356.16V358H649.206V356.96C649.206 356.747 649.249 356.528 649.334 356.304C649.43 356.069 649.574 355.861 649.766 355.68L657.046 348.352C657.654 347.733 658.203 347.141 658.694 346.576C659.185 346.011 659.606 345.445 659.958 344.88C660.31 344.315 660.577 343.744 660.758 343.168C660.95 342.581 661.046 341.957 661.046 341.296C661.046 340.645 660.945 340.075 660.742 339.584C660.539 339.093 660.257 338.683 659.894 338.352C659.542 338.021 659.121 337.776 658.63 337.616C658.139 337.456 657.611 337.376 657.046 337.376C656.481 337.376 655.963 337.461 655.494 337.632C655.025 337.792 654.603 338.021 654.23 338.32C653.867 338.608 653.558 338.955 653.302 339.36C653.057 339.755 652.881 340.192 652.774 340.672C652.635 341.067 652.449 341.333 652.214 341.472C651.99 341.6 651.67 341.632 651.254 341.568L649.654 341.28C649.814 340.224 650.107 339.291 650.534 338.48C650.971 337.669 651.521 336.992 652.182 336.448C652.843 335.893 653.601 335.477 654.454 335.2C655.307 334.923 656.23 334.784 657.222 334.784ZM670.265 355.68H675.145V340.432C675.145 339.963 675.161 339.477 675.193 338.976L671.241 342.352C671.091 342.469 670.942 342.544 670.793 342.576C670.654 342.608 670.521 342.613 670.393 342.592C670.265 342.56 670.147 342.512 670.041 342.448C669.934 342.384 669.854 342.315 669.801 342.24L668.857 340.912L675.72 334.992H678.185V355.68H682.649V358H670.265V355.68Z" fill="#1A1C1E"/>
<path d="M704 338H697C696.47 338 695.961 338.211 695.586 338.586C695.211 338.961 695 339.47 695 340V354C695 354.53 695.211 355.039 695.586 355.414C695.961 355.789 696.47 356 697 356H711C711.53 356 712.039 355.789 712.414 355.414C712.789 355.039 713 354.53 713 354V347" stroke="#510BF4" stroke-width="2" stroke-linecap="round" stroke-linejoin="round"/>
<path d="M711.5 336.5C711.898 336.102 712.437 335.879 713 335.879C713.563 335.879 714.102 336.102 714.5 336.5C714.898 336.898 715.121 337.437 715.121 338C715.121 338.563 714.898 339.102 714.5 339.5L705 349L701 350L702 346L711.5 336.5Z" stroke="#510BF4" stroke-width="2" stroke-linecap="round" stroke-linejoin="round"/>
</g>
<g filter="url(#filter2_d_968_6332)">
<g filter="url(#filter3_d_968_6332)">
<rect x="42" y="185" width="222" height="309" rx="24" fill="white" shape-rendering="crispEdges"/>
<path d="M76.656 227.616C76.856 228.016 77.044 228.448 77.22 228.912C77.308 228.68 77.396 228.456 77.484 228.24C77.58 228.016 77.684 227.8 77.796 227.592L83.508 217.2C83.612 217 83.724 216.88 83.844 216.84C83.972 216.8 84.144 216.78 84.36 216.78H86.196V234H84.024V221.616C84.024 221.44 84.028 221.252 84.036 221.052C84.044 220.852 84.056 220.648 84.072 220.44L78.288 231.024C78.2 231.208 78.076 231.348 77.916 231.444C77.764 231.54 77.592 231.588 77.4 231.588H77.052C76.644 231.588 76.344 231.4 76.152 231.024L70.248 220.392C70.264 220.608 70.28 220.82 70.296 221.028C70.312 221.236 70.32 221.432 70.32 221.616V234H68.148V216.78H69.984C70.2 216.78 70.368 216.8 70.488 216.84C70.616 216.88 70.732 217 70.836 217.2L76.656 227.616ZM94.6449 221.628C95.3809 221.628 96.0609 221.752 96.6849 222C97.3089 222.24 97.8489 222.592 98.3049 223.056C98.7609 223.52 99.1169 224.092 99.3729 224.772C99.6289 225.444 99.7569 226.216 99.7569 227.088C99.7569 227.44 99.7169 227.676 99.6369 227.796C99.5649 227.916 99.4249 227.976 99.2169 227.976H91.1769C91.2009 228.72 91.3049 229.368 91.4889 229.92C91.6809 230.472 91.9369 230.932 92.2569 231.3C92.5849 231.66 92.9769 231.932 93.4329 232.116C93.8889 232.292 94.3969 232.38 94.9569 232.38C95.4849 232.38 95.9369 232.32 96.3129 232.2C96.6969 232.08 97.0249 231.948 97.2969 231.804C97.5769 231.66 97.8129 231.528 98.0049 231.408C98.1969 231.288 98.3649 231.228 98.5089 231.228C98.7009 231.228 98.8409 231.3 98.9289 231.444L99.5769 232.272C99.2969 232.608 98.9729 232.896 98.6049 233.136C98.2369 233.368 97.8409 233.564 97.4169 233.724C96.9929 233.876 96.5529 233.988 96.0969 234.06C95.6489 234.132 95.2049 234.168 94.7649 234.168C93.9249 234.168 93.1449 234.028 92.4249 233.748C91.7129 233.46 91.0969 233.044 90.5769 232.5C90.0569 231.948 89.6489 231.268 89.3529 230.46C89.0649 229.644 88.9209 228.708 88.9209 227.652C88.9209 226.804 89.0529 226.016 89.3169 225.288C89.5809 224.552 89.9569 223.916 90.4449 223.38C90.9409 222.836 91.5409 222.408 92.2449 222.096C92.9569 221.784 93.7569 221.628 94.6449 221.628ZM94.6809 223.296C93.6809 223.296 92.8929 223.588 92.3169 224.172C91.7489 224.748 91.3929 225.548 91.2489 226.572H97.7169C97.7169 226.092 97.6489 225.652 97.5129 225.252C97.3769 224.852 97.1769 224.508 96.9129 224.22C96.6569 223.932 96.3409 223.708 95.9649 223.548C95.5889 223.38 95.1609 223.296 94.6809 223.296ZM102.32 234V221.82H103.688C104.008 221.82 104.208 221.972 104.288 222.276L104.444 223.464C104.892 222.928 105.392 222.488 105.944 222.144C106.496 221.8 107.14 221.628 107.876 221.628C108.692 221.628 109.352 221.852 109.856 222.3C110.36 222.74 110.724 223.34 110.948 224.1C111.124 223.668 111.352 223.296 111.632 222.984C111.912 222.672 112.224 222.416 112.568 222.216C112.912 222.016 113.276 221.868 113.66 221.772C114.052 221.676 114.448 221.628 114.848 221.628C116.152 221.628 117.16 222.028 117.872 222.828C118.584 223.62 118.94 224.756 118.94 226.236V234H116.66V226.236C116.66 225.316 116.456 224.62 116.048 224.148C115.648 223.676 115.064 223.44 114.296 223.44C113.952 223.44 113.624 223.5 113.312 223.62C113.008 223.74 112.74 223.916 112.508 224.148C112.276 224.38 112.092 224.672 111.956 225.024C111.82 225.376 111.752 225.78 111.752 226.236V234H109.472V226.236C109.472 225.292 109.28 224.592 108.896 224.136C108.52 223.672 107.964 223.44 107.228 223.44C106.724 223.44 106.248 223.576 105.8 223.848C105.36 224.112 104.96 224.48 104.6 224.952V234H102.32ZM127.297 221.628C128.193 221.628 129.001 221.776 129.721 222.072C130.441 222.36 131.053 222.776 131.557 223.32C132.061 223.864 132.449 224.524 132.721 225.3C132.993 226.068 133.129 226.932 133.129 227.892C133.129 228.852 132.993 229.72 132.721 230.496C132.449 231.272 132.061 231.932 131.557 232.476C131.053 233.02 130.441 233.44 129.721 233.736C129.001 234.024 128.193 234.168 127.297 234.168C126.401 234.168 125.589 234.024 124.861 233.736C124.141 233.44 123.525 233.02 123.013 232.476C122.509 231.932 122.121 231.272 121.849 230.496C121.577 229.72 121.441 228.852 121.441 227.892C121.441 226.932 121.577 226.068 121.849 225.3C122.121 224.524 122.509 223.864 123.013 223.32C123.525 222.776 124.141 222.36 124.861 222.072C125.589 221.776 126.401 221.628 127.297 221.628ZM127.297 232.392C128.465 232.392 129.337 232 129.913 231.216C130.489 230.432 130.777 229.328 130.777 227.904C130.777 226.488 130.489 225.384 129.913 224.592C129.337 223.8 128.465 223.404 127.297 223.404C126.113 223.404 125.229 223.8 124.645 224.592C124.069 225.384 123.781 226.488 123.781 227.904C123.781 229.328 124.069 230.432 124.645 231.216C125.229 232 126.113 232.392 127.297 232.392ZM135.765 234V221.82H137.073C137.321 221.82 137.489 221.864 137.577 221.952C137.673 222.04 137.737 222.2 137.769 222.432L137.913 224.208C138.297 223.4 138.769 222.764 139.329 222.3C139.889 221.836 140.561 221.604 141.345 221.604C141.609 221.604 141.857 221.632 142.089 221.688C142.329 221.744 142.537 221.832 142.713 221.952L142.557 223.656C142.509 223.872 142.381 223.98 142.173 223.98C142.061 223.98 141.893 223.956 141.669 223.908C141.453 223.86 141.213 223.836 140.949 223.836C140.573 223.836 140.237 223.892 139.941 224.004C139.653 224.116 139.393 224.28 139.161 224.496C138.929 224.712 138.721 224.976 138.537 225.288C138.361 225.6 138.197 225.956 138.045 226.356V234H135.765ZM148.359 237.552C148.287 237.728 148.195 237.86 148.083 237.948C147.971 238.044 147.799 238.092 147.567 238.092H145.875L148.107 233.256L143.091 221.82H145.071C145.263 221.82 145.415 221.868 145.527 221.964C145.639 222.052 145.715 222.156 145.755 222.276L148.911 229.716C149.047 230.084 149.155 230.448 149.235 230.808C149.291 230.624 149.351 230.44 149.415 230.256C149.479 230.064 149.547 229.876 149.619 229.692L152.667 222.276C152.715 222.14 152.799 222.032 152.919 221.952C153.039 221.864 153.175 221.82 153.327 221.82H155.139L148.359 237.552ZM169.649 232.02C170.345 232.02 170.965 231.904 171.509 231.672C172.061 231.432 172.525 231.1 172.901 230.676C173.285 230.252 173.577 229.748 173.777 229.164C173.977 228.572 174.077 227.92 174.077 227.208V216.78H176.549V227.208C176.549 228.208 176.389 229.136 176.069 229.992C175.749 230.848 175.293 231.588 174.701 232.212C174.109 232.836 173.385 233.324 172.529 233.676C171.673 234.028 170.713 234.204 169.649 234.204C168.577 234.204 167.613 234.028 166.757 233.676C165.909 233.324 165.185 232.836 164.585 232.212C163.993 231.588 163.537 230.848 163.217 229.992C162.897 229.136 162.737 228.208 162.737 227.208V216.78H165.209V227.208C165.209 227.912 165.309 228.56 165.509 229.152C165.709 229.736 165.997 230.244 166.373 230.676C166.757 231.1 167.225 231.432 167.777 231.672C168.329 231.904 168.953 232.02 169.649 232.02ZM186.722 223.884C186.61 224.076 186.454 224.172 186.254 224.172C186.126 224.172 185.982 224.128 185.822 224.04C185.67 223.952 185.486 223.856 185.27 223.752C185.054 223.64 184.794 223.54 184.49 223.452C184.194 223.364 183.842 223.32 183.434 223.32C183.09 223.32 182.778 223.364 182.498 223.452C182.218 223.54 181.978 223.66 181.778 223.812C181.586 223.964 181.434 224.144 181.322 224.352C181.218 224.552 181.166 224.772 181.166 225.012C181.166 225.316 181.254 225.572 181.43 225.78C181.614 225.98 181.85 226.156 182.138 226.308C182.434 226.452 182.77 226.584 183.146 226.704C183.522 226.816 183.906 226.936 184.298 227.064C184.69 227.192 185.074 227.34 185.45 227.508C185.826 227.668 186.158 227.868 186.446 228.108C186.742 228.348 186.978 228.644 187.154 228.996C187.338 229.34 187.43 229.756 187.43 230.244C187.43 230.812 187.326 231.336 187.118 231.816C186.918 232.296 186.618 232.712 186.218 233.064C185.826 233.416 185.342 233.692 184.766 233.892C184.19 234.092 183.526 234.192 182.774 234.192C181.926 234.192 181.15 234.052 180.446 233.772C179.75 233.492 179.162 233.136 178.682 232.704L179.21 231.84C179.274 231.728 179.354 231.644 179.45 231.588C179.546 231.524 179.666 231.492 179.81 231.492C179.962 231.492 180.118 231.548 180.278 231.66C180.438 231.772 180.63 231.896 180.854 232.032C181.086 232.16 181.362 232.28 181.682 232.392C182.01 232.504 182.414 232.56 182.894 232.56C183.302 232.56 183.654 232.508 183.95 232.404C184.254 232.3 184.506 232.164 184.706 231.996C184.906 231.82 185.054 231.616 185.15 231.384C185.246 231.152 185.294 230.908 185.294 230.652C185.294 230.324 185.202 230.052 185.018 229.836C184.842 229.62 184.606 229.436 184.31 229.284C184.022 229.132 183.69 229 183.314 228.888C182.938 228.776 182.55 228.656 182.15 228.528C181.758 228.4 181.374 228.256 180.998 228.096C180.622 227.928 180.286 227.716 179.99 227.46C179.702 227.204 179.466 226.896 179.282 226.536C179.106 226.168 179.018 225.72 179.018 225.192C179.018 224.72 179.114 224.268 179.306 223.836C179.498 223.404 179.778 223.024 180.146 222.696C180.522 222.368 180.982 222.108 181.526 221.916C182.07 221.724 182.69 221.628 183.386 221.628C184.186 221.628 184.91 221.756 185.558 222.012C186.214 222.26 186.77 222.608 187.226 223.056L186.722 223.884ZM197.764 234C197.54 234 197.368 233.964 197.248 233.892C197.128 233.82 197.032 233.68 196.96 233.472L196.708 232.38C196.396 232.668 196.088 232.928 195.784 233.16C195.48 233.384 195.16 233.572 194.824 233.724C194.496 233.876 194.144 233.992 193.768 234.072C193.392 234.152 192.972 234.192 192.508 234.192C192.028 234.192 191.58 234.128 191.164 234C190.748 233.864 190.384 233.66 190.072 233.388C189.768 233.116 189.524 232.78 189.34 232.38C189.164 231.972 189.076 231.492 189.076 230.94C189.076 230.46 189.204 230 189.46 229.56C189.724 229.12 190.148 228.728 190.732 228.384C191.324 228.032 192.092 227.744 193.036 227.52C193.988 227.296 195.156 227.168 196.54 227.136V226.224C196.54 225.304 196.34 224.612 195.94 224.148C195.548 223.676 194.968 223.44 194.2 223.44C193.68 223.44 193.244 223.508 192.892 223.644C192.548 223.772 192.248 223.916 191.992 224.076C191.744 224.228 191.524 224.368 191.332 224.496C191.14 224.624 190.948 224.688 190.756 224.688C190.596 224.688 190.46 224.648 190.348 224.568C190.244 224.48 190.152 224.38 190.072 224.268L189.664 223.524C190.344 222.884 191.076 222.404 191.86 222.084C192.652 221.764 193.524 221.604 194.476 221.604C195.164 221.604 195.776 221.716 196.312 221.94C196.848 222.164 197.296 222.48 197.656 222.888C198.024 223.288 198.3 223.772 198.484 224.34C198.676 224.908 198.772 225.536 198.772 226.224V234H197.764ZM193.192 232.596C193.552 232.596 193.884 232.56 194.188 232.488C194.5 232.416 194.788 232.312 195.052 232.176C195.324 232.04 195.58 231.876 195.82 231.684C196.06 231.484 196.3 231.26 196.54 231.012V228.564C195.58 228.596 194.764 228.672 194.092 228.792C193.42 228.912 192.872 229.068 192.448 229.26C192.032 229.452 191.728 229.684 191.536 229.956C191.344 230.22 191.248 230.512 191.248 230.832C191.248 231.144 191.296 231.412 191.392 231.636C191.496 231.86 191.636 232.044 191.812 232.188C191.988 232.324 192.192 232.428 192.424 232.5C192.664 232.564 192.92 232.596 193.192 232.596ZM206.225 221.616C206.753 221.616 207.241 221.676 207.689 221.796C208.145 221.908 208.565 222.072 208.949 222.288H212.309V223.128C212.309 223.416 212.133 223.596 211.781 223.668L210.449 223.86C210.697 224.372 210.821 224.932 210.821 225.54C210.821 226.14 210.705 226.68 210.473 227.16C210.249 227.64 209.933 228.052 209.525 228.396C209.117 228.74 208.629 229.004 208.061 229.188C207.501 229.372 206.889 229.464 206.225 229.464C205.665 229.464 205.145 229.404 204.665 229.284C204.161 229.588 203.909 229.924 203.909 230.292C203.909 230.572 204.025 230.784 204.257 230.928C204.497 231.064 204.809 231.164 205.193 231.228C205.577 231.292 206.013 231.332 206.501 231.348C206.989 231.364 207.489 231.392 208.001 231.432C208.513 231.464 209.013 231.524 209.501 231.612C209.989 231.7 210.425 231.848 210.809 232.056C211.193 232.256 211.501 232.532 211.733 232.884C211.973 233.236 212.093 233.696 212.093 234.264C212.093 234.792 211.961 235.3 211.697 235.788C211.441 236.284 211.065 236.72 210.569 237.096C210.081 237.48 209.481 237.788 208.769 238.02C208.057 238.252 207.253 238.368 206.357 238.368C205.461 238.368 204.677 238.28 204.005 238.104C203.341 237.928 202.785 237.692 202.337 237.396C201.897 237.1 201.565 236.756 201.341 236.364C201.125 235.98 201.017 235.576 201.017 235.152C201.017 234.552 201.201 234.048 201.569 233.64C201.945 233.224 202.457 232.9 203.105 232.668C202.745 232.508 202.461 232.292 202.253 232.02C202.045 231.74 201.941 231.372 201.941 230.916C201.941 230.74 201.973 230.56 202.037 230.376C202.101 230.184 202.197 229.996 202.325 229.812C202.461 229.62 202.625 229.44 202.817 229.272C203.017 229.104 203.245 228.956 203.501 228.828C202.901 228.492 202.429 228.048 202.085 227.496C201.741 226.936 201.569 226.284 201.569 225.54C201.569 224.94 201.685 224.4 201.917 223.92C202.149 223.44 202.469 223.028 202.877 222.684C203.293 222.34 203.785 222.076 204.353 221.892C204.921 221.708 205.545 221.616 206.225 221.616ZM209.993 234.636C209.993 234.348 209.909 234.116 209.741 233.94C209.581 233.764 209.361 233.624 209.081 233.52C208.801 233.416 208.477 233.344 208.109 233.304C207.741 233.264 207.353 233.232 206.945 233.208C206.537 233.184 206.117 233.16 205.685 233.136C205.261 233.112 204.853 233.072 204.461 233.016C204.029 233.224 203.677 233.48 203.405 233.784C203.133 234.088 202.997 234.444 202.997 234.852C202.997 235.116 203.065 235.36 203.201 235.584C203.337 235.816 203.541 236.012 203.813 236.172C204.093 236.34 204.445 236.472 204.869 236.568C205.301 236.664 205.809 236.712 206.393 236.712C206.969 236.712 207.481 236.66 207.929 236.556C208.377 236.452 208.753 236.308 209.057 236.124C209.361 235.94 209.593 235.72 209.753 235.464C209.913 235.216 209.993 234.94 209.993 234.636ZM206.225 227.964C206.649 227.964 207.021 227.908 207.341 227.796C207.661 227.676 207.929 227.512 208.145 227.304C208.361 227.096 208.521 226.848 208.625 226.56C208.737 226.272 208.793 225.952 208.793 225.6C208.793 224.88 208.573 224.308 208.133 223.884C207.701 223.452 207.065 223.236 206.225 223.236C205.385 223.236 204.745 223.452 204.305 223.884C203.873 224.308 203.657 224.88 203.657 225.6C203.657 225.944 203.713 226.26 203.825 226.548C203.937 226.836 204.101 227.088 204.317 227.304C204.533 227.512 204.801 227.676 205.121 227.796C205.441 227.908 205.809 227.964 206.225 227.964ZM219.309 221.628C220.045 221.628 220.725 221.752 221.349 222C221.973 222.24 222.513 222.592 222.969 223.056C223.425 223.52 223.781 224.092 224.037 224.772C224.293 225.444 224.421 226.216 224.421 227.088C224.421 227.44 224.381 227.676 224.301 227.796C224.229 227.916 224.089 227.976 223.881 227.976H215.841C215.865 228.72 215.969 229.368 216.153 229.92C216.345 230.472 216.601 230.932 216.921 231.3C217.249 231.66 217.641 231.932 218.097 232.116C218.553 232.292 219.061 232.38 219.621 232.38C220.149 232.38 220.601 232.32 220.977 232.2C221.361 232.08 221.689 231.948 221.961 231.804C222.241 231.66 222.477 231.528 222.669 231.408C222.861 231.288 223.029 231.228 223.173 231.228C223.365 231.228 223.505 231.3 223.593 231.444L224.241 232.272C223.961 232.608 223.637 232.896 223.269 233.136C222.901 233.368 222.505 233.564 222.081 233.724C221.657 233.876 221.217 233.988 220.761 234.06C220.313 234.132 219.869 234.168 219.429 234.168C218.589 234.168 217.809 234.028 217.089 233.748C216.377 233.46 215.761 233.044 215.241 232.5C214.721 231.948 214.313 231.268 214.017 230.46C213.729 229.644 213.585 228.708 213.585 227.652C213.585 226.804 213.717 226.016 213.981 225.288C214.245 224.552 214.621 223.916 215.109 223.38C215.605 222.836 216.205 222.408 216.909 222.096C217.621 221.784 218.421 221.628 219.309 221.628ZM219.345 223.296C218.345 223.296 217.557 223.588 216.981 224.172C216.413 224.748 216.057 225.548 215.913 226.572H222.381C222.381 226.092 222.313 225.652 222.177 225.252C222.041 224.852 221.841 224.508 221.577 224.22C221.321 223.932 221.005 223.708 220.629 223.548C220.253 223.38 219.825 223.296 219.345 223.296Z" fill="#1A1C1E"/>
<path d="M73.791 252.396C73.8563 252.289 73.9403 252.191 74.043 252.102C74.1457 252.013 74.2647 251.969 74.4 251.969H75.408V262H74.05V254.874C74.05 254.678 74.0547 254.473 74.064 254.258C74.0733 254.039 74.0943 253.808 74.127 253.565C74.0477 253.775 73.9613 253.971 73.868 254.153C73.7793 254.33 73.6907 254.487 73.602 254.622L68.898 261.573C68.8327 261.68 68.7487 261.778 68.646 261.867C68.5433 261.956 68.4243 262 68.289 262H67.281V251.969H68.639V259.102C68.639 259.303 68.6343 259.513 68.625 259.732C68.6157 259.947 68.5947 260.178 68.562 260.425C68.6413 260.21 68.7253 260.014 68.814 259.837C68.9073 259.655 68.9983 259.492 69.087 259.347L73.791 252.396ZM82.3947 256.169C82.3573 256.22 82.32 256.26 82.2827 256.288C82.2453 256.316 82.194 256.33 82.1287 256.33C82.0587 256.33 81.9817 256.302 81.8977 256.246C81.8137 256.185 81.7087 256.12 81.5827 256.05C81.4613 255.98 81.3097 255.917 81.1277 255.861C80.9503 255.8 80.731 255.77 80.4697 255.77C80.1197 255.77 79.8117 255.833 79.5457 255.959C79.2797 256.08 79.0557 256.258 78.8737 256.491C78.6963 256.724 78.561 257.007 78.4677 257.338C78.379 257.669 78.3347 258.04 78.3347 258.451C78.3347 258.88 78.3837 259.263 78.4817 259.599C78.5797 259.93 78.7173 260.21 78.8947 260.439C79.0767 260.663 79.2937 260.836 79.5457 260.957C79.8023 261.074 80.0893 261.132 80.4067 261.132C80.71 261.132 80.9597 261.097 81.1557 261.027C81.3517 260.952 81.5127 260.871 81.6387 260.782C81.7693 260.693 81.8767 260.614 81.9607 260.544C82.0493 260.469 82.1357 260.432 82.2197 260.432C82.3223 260.432 82.4017 260.472 82.4577 260.551L82.8077 261.006C82.6537 261.197 82.4787 261.361 82.2827 261.496C82.0867 261.631 81.8743 261.746 81.6457 261.839C81.4217 261.928 81.186 261.993 80.9387 262.035C80.6913 262.077 80.4393 262.098 80.1827 262.098C79.7393 262.098 79.3263 262.016 78.9437 261.853C78.5657 261.69 78.2367 261.454 77.9567 261.146C77.6767 260.833 77.4573 260.451 77.2987 259.998C77.14 259.545 77.0607 259.03 77.0607 258.451C77.0607 257.924 77.133 257.436 77.2777 256.988C77.427 256.54 77.6417 256.155 77.9217 255.833C78.2063 255.506 78.554 255.252 78.9647 255.07C79.38 254.888 79.856 254.797 80.3927 254.797C80.892 254.797 81.3307 254.879 81.7087 255.042C82.0913 255.201 82.4297 255.427 82.7237 255.721L82.3947 256.169ZM90.0532 254.909V262H88.8002V255.861H85.3982V262H84.1452V254.909H90.0532ZM95.0229 254.797C95.5409 254.797 96.0075 254.883 96.4229 255.056C96.8382 255.229 97.1929 255.474 97.4869 255.791C97.7809 256.108 98.0049 256.493 98.1589 256.946C98.3175 257.394 98.3969 257.896 98.3969 258.451C98.3969 259.011 98.3175 259.515 98.1589 259.963C98.0049 260.411 97.7809 260.794 97.4869 261.111C97.1929 261.428 96.8382 261.673 96.4229 261.846C96.0075 262.014 95.5409 262.098 95.0229 262.098C94.5002 262.098 94.0289 262.014 93.6089 261.846C93.1935 261.673 92.8389 261.428 92.5449 261.111C92.2509 260.794 92.0245 260.411 91.8659 259.963C91.7119 259.515 91.6349 259.011 91.6349 258.451C91.6349 257.896 91.7119 257.394 91.8659 256.946C92.0245 256.493 92.2509 256.108 92.5449 255.791C92.8389 255.474 93.1935 255.229 93.6089 255.056C94.0289 254.883 94.5002 254.797 95.0229 254.797ZM95.0229 261.125C95.7229 261.125 96.2455 260.892 96.5909 260.425C96.9362 259.954 97.1089 259.298 97.1089 258.458C97.1089 257.613 96.9362 256.955 96.5909 256.484C96.2455 256.013 95.7229 255.777 95.0229 255.777C94.6682 255.777 94.3579 255.838 94.0919 255.959C93.8305 256.08 93.6112 256.255 93.4339 256.484C93.2612 256.713 93.1305 256.995 93.0419 257.331C92.9579 257.662 92.9159 258.038 92.9159 258.458C92.9159 259.298 93.0885 259.954 93.4339 260.425C93.7839 260.892 94.3135 261.125 95.0229 261.125ZM105.988 254.909V262H104.742V255.889H102.502C102.446 256.79 102.362 257.569 102.25 258.227C102.138 258.88 102.003 259.438 101.844 259.9C101.69 260.357 101.515 260.731 101.319 261.02C101.128 261.305 100.925 261.526 100.71 261.685C100.5 261.844 100.281 261.951 100.052 262.007C99.8282 262.063 99.6042 262.091 99.3802 262.091C98.9835 262.091 98.7852 262.028 98.7852 261.902V261.111H99.1492C99.3078 261.111 99.4688 261.083 99.6322 261.027C99.7955 260.971 99.9542 260.864 100.108 260.705C100.267 260.546 100.418 260.325 100.563 260.04C100.708 259.751 100.838 259.377 100.955 258.92C101.076 258.458 101.179 257.9 101.263 257.247C101.352 256.589 101.419 255.81 101.466 254.909H105.988ZM109.159 254.909V257.688H110.664C111.154 257.688 111.564 257.746 111.896 257.863C112.232 257.98 112.5 258.136 112.701 258.332C112.906 258.528 113.053 258.754 113.142 259.011C113.23 259.268 113.275 259.534 113.275 259.809C113.275 260.126 113.219 260.42 113.107 260.691C112.995 260.957 112.829 261.188 112.61 261.384C112.39 261.575 112.12 261.727 111.798 261.839C111.476 261.946 111.105 262 110.685 262H107.962V254.909H109.159ZM109.159 258.598V261.09H110.685C110.937 261.09 111.154 261.06 111.336 260.999C111.522 260.934 111.676 260.845 111.798 260.733C111.919 260.616 112.01 260.481 112.071 260.327C112.131 260.173 112.162 260.005 112.162 259.823C112.162 259.655 112.136 259.499 112.085 259.354C112.033 259.205 111.947 259.074 111.826 258.962C111.709 258.85 111.555 258.761 111.364 258.696C111.172 258.631 110.939 258.598 110.664 258.598H109.159ZM114.213 255.637C114.479 255.385 114.801 255.182 115.179 255.028C115.561 254.874 116.021 254.797 116.558 254.797C116.987 254.797 117.365 254.851 117.692 254.958C118.018 255.061 118.291 255.198 118.511 255.371C118.735 255.544 118.903 255.742 119.015 255.966C119.131 256.185 119.19 256.414 119.19 256.652C119.19 256.792 119.166 256.939 119.12 257.093C119.078 257.247 119.005 257.394 118.903 257.534C118.8 257.674 118.667 257.805 118.504 257.926C118.34 258.047 118.137 258.145 117.895 258.22C118.347 258.355 118.702 258.572 118.959 258.871C119.22 259.17 119.351 259.536 119.351 259.97C119.351 260.297 119.276 260.593 119.127 260.859C118.977 261.12 118.777 261.344 118.525 261.531C118.273 261.713 117.979 261.853 117.643 261.951C117.311 262.049 116.964 262.098 116.6 262.098C116.371 262.098 116.138 262.077 115.9 262.035C115.666 261.993 115.438 261.928 115.214 261.839C114.99 261.746 114.777 261.631 114.577 261.496C114.381 261.361 114.206 261.197 114.052 261.006L114.402 260.551C114.458 260.472 114.537 260.432 114.64 260.432C114.724 260.432 114.812 260.469 114.906 260.544C115.004 260.614 115.123 260.693 115.263 260.782C115.403 260.871 115.573 260.952 115.774 261.027C115.979 261.097 116.229 261.132 116.523 261.132C116.779 261.132 117.008 261.102 117.209 261.041C117.414 260.976 117.587 260.887 117.727 260.775C117.867 260.663 117.974 260.53 118.049 260.376C118.123 260.222 118.161 260.054 118.161 259.872C118.161 259.522 118.014 259.24 117.72 259.025C117.43 258.81 116.989 258.703 116.397 258.703H115.592V257.877H116.397C116.653 257.877 116.884 257.851 117.09 257.8C117.295 257.744 117.47 257.669 117.615 257.576C117.759 257.483 117.869 257.371 117.944 257.24C118.018 257.105 118.056 256.96 118.056 256.806C118.056 256.666 118.023 256.533 117.958 256.407C117.897 256.281 117.801 256.171 117.671 256.078C117.545 255.985 117.386 255.91 117.195 255.854C117.003 255.798 116.779 255.77 116.523 255.77C116.243 255.77 116.005 255.798 115.809 255.854C115.617 255.91 115.454 255.971 115.319 256.036C115.188 256.101 115.081 256.162 114.997 256.218C114.913 256.274 114.84 256.302 114.78 256.302C114.719 256.302 114.668 256.29 114.626 256.267C114.588 256.244 114.546 256.195 114.5 256.12L114.213 255.637ZM122.921 264.093C122.879 264.186 122.826 264.261 122.76 264.317C122.7 264.373 122.604 264.401 122.473 264.401H121.549L122.844 261.587L119.918 254.909H120.996C121.104 254.909 121.188 254.937 121.248 254.993C121.314 255.044 121.358 255.103 121.381 255.168L123.278 259.634C123.316 259.741 123.351 259.846 123.383 259.949C123.416 260.047 123.444 260.15 123.467 260.257C123.528 260.047 123.598 259.837 123.677 259.627L125.518 255.168C125.546 255.093 125.593 255.033 125.658 254.986C125.728 254.935 125.805 254.909 125.889 254.909H126.876L122.921 264.093ZM130.691 254.797C131.115 254.797 131.507 254.869 131.867 255.014C132.231 255.154 132.543 255.359 132.805 255.63C133.071 255.896 133.278 256.227 133.428 256.624C133.577 257.016 133.652 257.464 133.652 257.968C133.652 258.164 133.631 258.295 133.589 258.36C133.547 258.425 133.467 258.458 133.351 258.458H128.612C128.621 258.906 128.682 259.296 128.794 259.627C128.906 259.958 129.06 260.236 129.256 260.46C129.452 260.679 129.685 260.845 129.956 260.957C130.226 261.064 130.53 261.118 130.866 261.118C131.178 261.118 131.447 261.083 131.671 261.013C131.899 260.938 132.095 260.859 132.259 260.775C132.422 260.691 132.557 260.614 132.665 260.544C132.777 260.469 132.872 260.432 132.952 260.432C133.054 260.432 133.134 260.472 133.19 260.551L133.54 261.006C133.386 261.193 133.201 261.356 132.987 261.496C132.772 261.631 132.541 261.743 132.294 261.832C132.051 261.921 131.799 261.986 131.538 262.028C131.276 262.075 131.017 262.098 130.761 262.098C130.271 262.098 129.818 262.016 129.403 261.853C128.992 261.685 128.635 261.442 128.332 261.125C128.033 260.803 127.8 260.406 127.632 259.935C127.464 259.464 127.38 258.922 127.38 258.311C127.38 257.816 127.454 257.354 127.604 256.925C127.758 256.496 127.977 256.125 128.262 255.812C128.546 255.495 128.894 255.247 129.305 255.07C129.715 254.888 130.177 254.797 130.691 254.797ZM130.719 255.714C130.117 255.714 129.643 255.889 129.298 256.239C128.952 256.584 128.738 257.065 128.654 257.681H132.532C132.532 257.392 132.49 257.128 132.406 256.89C132.326 256.647 132.207 256.44 132.049 256.267C131.895 256.09 131.706 255.954 131.482 255.861C131.258 255.763 131.003 255.714 130.719 255.714ZM134.248 254.909H140.94V255.861H138.217V262H136.971V255.861H134.248V254.909ZM146.776 256.169C146.738 256.22 146.701 256.26 146.664 256.288C146.626 256.316 146.575 256.33 146.51 256.33C146.44 256.33 146.363 256.302 146.279 256.246C146.195 256.185 146.09 256.12 145.964 256.05C145.842 255.98 145.691 255.917 145.509 255.861C145.331 255.8 145.112 255.77 144.851 255.77C144.501 255.77 144.193 255.833 143.927 255.959C143.661 256.08 143.437 256.258 143.255 256.491C143.077 256.724 142.942 257.007 142.849 257.338C142.76 257.669 142.716 258.04 142.716 258.451C142.716 258.88 142.765 259.263 142.863 259.599C142.961 259.93 143.098 260.21 143.276 260.439C143.458 260.663 143.675 260.836 143.927 260.957C144.183 261.074 144.47 261.132 144.788 261.132C145.091 261.132 145.341 261.097 145.537 261.027C145.733 260.952 145.894 260.871 146.02 260.782C146.15 260.693 146.258 260.614 146.342 260.544C146.43 260.469 146.517 260.432 146.601 260.432C146.703 260.432 146.783 260.472 146.839 260.551L147.189 261.006C147.035 261.197 146.86 261.361 146.664 261.496C146.468 261.631 146.255 261.746 146.027 261.839C145.803 261.928 145.567 261.993 145.32 262.035C145.072 262.077 144.82 262.098 144.564 262.098C144.12 262.098 143.707 262.016 143.325 261.853C142.947 261.69 142.618 261.454 142.338 261.146C142.058 260.833 141.838 260.451 141.68 259.998C141.521 259.545 141.442 259.03 141.442 258.451C141.442 257.924 141.514 257.436 141.659 256.988C141.808 256.54 142.023 256.155 142.303 255.833C142.587 255.506 142.935 255.252 143.346 255.07C143.761 254.888 144.237 254.797 144.774 254.797C145.273 254.797 145.712 254.879 146.09 255.042C146.472 255.201 146.811 255.427 147.105 255.721L146.776 256.169ZM153.447 262H152.257V259.011H151.711C151.58 259.011 151.471 259.023 151.382 259.046C151.298 259.065 151.223 259.093 151.158 259.13C151.097 259.167 151.044 259.216 150.997 259.277C150.95 259.333 150.901 259.398 150.85 259.473L149.296 261.566C149.217 261.715 149.119 261.825 149.002 261.895C148.89 261.965 148.724 262 148.505 262H147.637L149.695 259.326C149.858 259.055 150.08 258.869 150.36 258.766C150.001 258.719 149.697 258.638 149.45 258.521C149.203 258.4 149 258.255 148.841 258.087C148.687 257.919 148.575 257.735 148.505 257.534C148.435 257.333 148.4 257.13 148.4 256.925C148.4 256.682 148.447 256.44 148.54 256.197C148.638 255.954 148.792 255.74 149.002 255.553C149.212 255.362 149.483 255.208 149.814 255.091C150.15 254.97 150.556 254.909 151.032 254.909H153.447V262ZM149.653 256.995C149.653 257.378 149.793 257.679 150.073 257.898C150.353 258.113 150.736 258.22 151.221 258.22H152.257V255.749H151.067C150.801 255.749 150.577 255.789 150.395 255.868C150.213 255.943 150.066 256.041 149.954 256.162C149.847 256.279 149.77 256.412 149.723 256.561C149.676 256.706 149.653 256.85 149.653 256.995Z" fill="#7C7F89"/>
<path d="M149.5 464C131.051 464 113.122 457.89 98.5125 446.625C83.9029 435.36 73.4349 419.574 68.7442 401.731C64.0535 383.889 65.4036 364.996 72.5835 348.002C79.7639 331.008 92.3697 316.87 108.433 307.797C124.496 298.724 143.112 295.225 161.373 297.849C179.634 300.472 196.512 309.069 209.372 322.297C222.231 335.525 230.348 352.639 232.454 370.967C234.56 389.295 230.537 407.805 221.014 423.605" stroke="#FF4242" stroke-width="6" stroke-linecap="round"/>
<path d="M124.808 360.82V363.172C124.808 363.863 124.734 364.423 124.584 364.852C124.435 365.281 124.286 365.655 124.136 365.972L107.728 399.124C107.467 399.647 107.112 400.095 106.664 400.468C106.216 400.823 105.61 401 104.844 401H101.036L117.696 368.296C118.182 367.325 118.742 366.467 119.376 365.72H98.7124C98.3577 365.72 98.0497 365.589 97.7884 365.328C97.5457 365.067 97.4244 364.768 97.4244 364.432V360.82H124.808ZM143.209 401.448C141.193 401.448 139.345 401.177 137.665 400.636C136.003 400.095 134.575 399.329 133.381 398.34C132.186 397.332 131.253 396.128 130.581 394.728C129.927 393.309 129.601 391.723 129.601 389.968C129.601 387.411 130.254 385.301 131.561 383.64C132.886 381.979 134.799 380.784 137.301 380.056C135.21 379.272 133.633 378.105 132.569 376.556C131.505 374.988 130.973 373.121 130.973 370.956C130.973 369.463 131.262 368.072 131.841 366.784C132.438 365.496 133.269 364.376 134.333 363.424C135.415 362.472 136.703 361.725 138.197 361.184C139.709 360.643 141.379 360.372 143.209 360.372C145.038 360.372 146.699 360.643 148.193 361.184C149.705 361.725 150.993 362.472 152.057 363.424C153.139 364.376 153.97 365.496 154.549 366.784C155.146 368.072 155.445 369.463 155.445 370.956C155.445 373.121 154.903 374.988 153.821 376.556C152.757 378.105 151.179 379.272 149.089 380.056C151.59 380.784 153.503 381.979 154.829 383.64C156.154 385.301 156.817 387.411 156.817 389.968C156.817 391.723 156.481 393.309 155.809 394.728C155.155 396.128 154.231 397.332 153.037 398.34C151.842 399.329 150.405 400.095 148.725 400.636C147.063 401.177 145.225 401.448 143.209 401.448ZM143.209 397.22C144.497 397.22 145.645 397.043 146.653 396.688C147.661 396.315 148.51 395.801 149.201 395.148C149.91 394.495 150.442 393.72 150.797 392.824C151.17 391.928 151.357 390.939 151.357 389.856C151.357 388.531 151.133 387.392 150.685 386.44C150.255 385.488 149.667 384.713 148.921 384.116C148.174 383.5 147.306 383.052 146.317 382.772C145.327 382.473 144.291 382.324 143.209 382.324C142.107 382.324 141.062 382.473 140.073 382.772C139.102 383.052 138.243 383.5 137.497 384.116C136.75 384.713 136.153 385.488 135.705 386.44C135.275 387.392 135.061 388.531 135.061 389.856C135.061 390.939 135.238 391.928 135.593 392.824C135.966 393.72 136.498 394.495 137.189 395.148C137.898 395.801 138.757 396.315 139.765 396.688C140.773 397.043 141.921 397.22 143.209 397.22ZM143.209 378.068C144.497 378.068 145.579 377.872 146.457 377.48C147.353 377.088 148.081 376.565 148.641 375.912C149.201 375.259 149.602 374.512 149.845 373.672C150.106 372.832 150.237 371.964 150.237 371.068C150.237 370.172 150.087 369.323 149.789 368.52C149.509 367.717 149.07 367.017 148.473 366.42C147.894 365.804 147.166 365.328 146.289 364.992C145.411 364.637 144.385 364.46 143.209 364.46C142.033 364.46 141.006 364.637 140.129 364.992C139.251 365.328 138.514 365.804 137.917 366.42C137.338 367.017 136.899 367.717 136.601 368.52C136.321 369.323 136.181 370.172 136.181 371.068C136.181 371.964 136.302 372.832 136.545 373.672C136.806 374.512 137.217 375.259 137.777 375.912C138.337 376.565 139.055 377.088 139.933 377.48C140.829 377.872 141.921 378.068 143.209 378.068ZM179.781 370.508C179.781 372.076 179.538 373.476 179.053 374.708C178.568 375.94 177.905 376.985 177.065 377.844C176.244 378.703 175.292 379.356 174.209 379.804C173.126 380.252 171.988 380.476 170.793 380.476C169.524 380.476 168.338 380.252 167.237 379.804C166.154 379.356 165.212 378.703 164.409 377.844C163.625 376.985 163 375.94 162.533 374.708C162.085 373.476 161.861 372.076 161.861 370.508C161.861 368.903 162.085 367.475 162.533 366.224C163 364.973 163.625 363.919 164.409 363.06C165.212 362.183 166.154 361.52 167.237 361.072C168.338 360.624 169.524 360.4 170.793 360.4C172.081 360.4 173.266 360.624 174.349 361.072C175.45 361.52 176.402 362.183 177.205 363.06C178.008 363.919 178.633 364.973 179.081 366.224C179.548 367.475 179.781 368.903 179.781 370.508ZM175.665 370.508C175.665 369.313 175.534 368.296 175.273 367.456C175.03 366.616 174.685 365.935 174.237 365.412C173.789 364.889 173.266 364.516 172.669 364.292C172.09 364.049 171.465 363.928 170.793 363.928C170.121 363.928 169.496 364.049 168.917 364.292C168.338 364.516 167.834 364.889 167.405 365.412C166.976 365.935 166.63 366.616 166.369 367.456C166.126 368.296 166.005 369.313 166.005 370.508C166.005 371.684 166.126 372.683 166.369 373.504C166.63 374.325 166.976 374.997 167.405 375.52C167.834 376.024 168.338 376.397 168.917 376.64C169.496 376.864 170.121 376.976 170.793 376.976C171.465 376.976 172.09 376.864 172.669 376.64C173.266 376.397 173.789 376.024 174.237 375.52C174.685 374.997 175.03 374.325 175.273 373.504C175.534 372.683 175.665 371.684 175.665 370.508ZM193.865 361.688C194.052 361.464 194.276 361.268 194.537 361.1C194.798 360.913 195.162 360.82 195.629 360.82H199.465L170.009 400.16C169.822 400.403 169.589 400.608 169.309 400.776C169.029 400.925 168.702 401 168.329 401H164.409L193.865 361.688ZM202.097 391.508C202.097 393.076 201.854 394.476 201.369 395.708C200.884 396.94 200.221 397.985 199.381 398.844C198.56 399.703 197.608 400.356 196.525 400.804C195.442 401.252 194.304 401.476 193.109 401.476C191.84 401.476 190.654 401.252 189.553 400.804C188.47 400.356 187.528 399.703 186.725 398.844C185.922 397.985 185.297 396.94 184.849 395.708C184.401 394.476 184.177 393.076 184.177 391.508C184.177 389.903 184.401 388.475 184.849 387.224C185.297 385.973 185.922 384.919 186.725 384.06C187.528 383.183 188.47 382.52 189.553 382.072C190.654 381.624 191.84 381.4 193.109 381.4C194.378 381.4 195.564 381.624 196.665 382.072C197.766 382.52 198.718 383.183 199.521 384.06C200.324 384.919 200.949 385.973 201.397 387.224C201.864 388.475 202.097 389.903 202.097 391.508ZM197.981 391.508C197.981 390.313 197.85 389.296 197.589 388.456C197.346 387.616 197.001 386.935 196.553 386.412C196.105 385.871 195.582 385.488 194.985 385.264C194.406 385.021 193.781 384.9 193.109 384.9C192.437 384.9 191.812 385.021 191.233 385.264C190.654 385.488 190.141 385.871 189.693 386.412C189.264 386.935 188.928 387.616 188.685 388.456C188.442 389.296 188.321 390.313 188.321 391.508C188.321 392.684 188.442 393.683 188.685 394.504C188.928 395.325 189.264 395.997 189.693 396.52C190.141 397.024 190.654 397.397 191.233 397.64C191.812 397.864 192.437 397.976 193.109 397.976C193.781 397.976 194.406 397.864 194.985 397.64C195.582 397.397 196.105 397.024 196.553 396.52C197.001 395.997 197.346 395.325 197.589 394.504C197.85 393.683 197.981 392.684 197.981 391.508Z" fill="black"/>
</g>
</g>
<defs>
<filter id="filter0_d_968_6332" x="143" y="0" width="502" height="365" filterUnits="userSpaceOnUse" color-interpolation-filters="sRGB">
<feFlood flood-opacity="0" result="BackgroundImageFix"/>
<feColorMatrix in="SourceAlpha" type="matrix" values="0 0 0 0 0 0 0 0 0 0 0 0 0 0 0 0 0 0 127 0" result="hardAlpha"/>
<feOffset dy="7"/>
<feGaussianBlur stdDeviation="8"/>
<feComposite in2="hardAlpha" operator="out"/>
<feColorMatrix type="matrix" values="0 0 0 0 0 0 0 0 0 0 0 0 0 0 0 0 0 0 0.17 0"/>
<feBlend mode="normal" in2="BackgroundImageFix" result="effect1_dropShadow_968_6332"/>
<feBlend mode="normal" in="SourceGraphic" in2="effect1_dropShadow_968_6332" result="shape"/>
</filter>
<filter id="filter1_d_968_6332" x="418" y="271" width="343" height="136" filterUnits="userSpaceOnUse" color-interpolation-filters="sRGB">
<feFlood flood-opacity="0" result="BackgroundImageFix"/>
<feColorMatrix in="SourceAlpha" type="matrix" values="0 0 0 0 0 0 0 0 0 0 0 0 0 0 0 0 0 0 127 0" result="hardAlpha"/>
<feOffset dy="7"/>
<feGaussianBlur stdDeviation="8"/>
<feComposite in2="hardAlpha" operator="out"/>
<feColorMatrix type="matrix" values="0 0 0 0 0 0 0 0 0 0 0 0 0 0 0 0 0 0 0.17 0"/>
<feBlend mode="normal" in2="BackgroundImageFix" result="effect1_dropShadow_968_6332"/>
<feBlend mode="normal" in="SourceGraphic" in2="effect1_dropShadow_968_6332" result="shape"/>
</filter>
<filter id="filter2_d_968_6332" x="26" y="176" width="312" height="341" filterUnits="userSpaceOnUse" color-interpolation-filters="sRGB">
<feFlood flood-opacity="0" result="BackgroundImageFix"/>
<feColorMatrix in="SourceAlpha" type="matrix" values="0 0 0 0 0 0 0 0 0 0 0 0 0 0 0 0 0 0 127 0" result="hardAlpha"/>
<feOffset dy="7"/>
<feGaussianBlur stdDeviation="8"/>
<feComposite in2="hardAlpha" operator="out"/>
<feColorMatrix type="matrix" values="0 0 0 0 0 0 0 0 0 0 0 0 0 0 0 0 0 0 0.17 0"/>
<feBlend mode="normal" in2="BackgroundImageFix" result="effect1_dropShadow_968_6332"/>
<feBlend mode="normal" in="SourceGraphic" in2="effect1_dropShadow_968_6332" result="shape"/>
</filter>
<filter id="filter3_d_968_6332" x="0" y="157" width="364" height="393" filterUnits="userSpaceOnUse" color-interpolation-filters="sRGB">
<feFlood flood-opacity="0" result="BackgroundImageFix"/>
<feColorMatrix in="SourceAlpha" type="matrix" values="0 0 0 0 0 0 0 0 0 0 0 0 0 0 0 0 0 0 127 0" result="hardAlpha"/>
<feOffset dy="14"/>
<feGaussianBlur stdDeviation="21"/>
<feComposite in2="hardAlpha" operator="out"/>
<feColorMatrix type="matrix" values="0 0 0 0 0 0 0 0 0 0 0 0 0 0 0 0 0 0 0.05 0"/>
<feBlend mode="normal" in2="BackgroundImageFix" result="effect1_dropShadow_968_6332"/>
<feBlend mode="normal" in="SourceGraphic" in2="effect1_dropShadow_968_6332" result="shape"/>
</filter>
</defs>
</svg>
